<svg width="52" height="52" viewBox="0 0 52 52" fill="none" xmlns="http://www.w3.org/2000/svg">
<path d="M25.9999 0.000976562C11.6416 0.000976562 0 11.6426 0 26.001C0 40.3591 11.6416 52.001 25.9999 52.001C40.3583 52.001 51.9997 40.359 51.9997 26.001C51.9998 11.6426 40.3583 0.000976562 25.9999 0.000976562ZM39.7296 37.9379L37.6479 40.0201C37.2762 40.3912 36.1879 40.6228 36.153 40.6228C29.5672 40.6802 23.2261 38.0934 18.567 33.4338C13.8952 28.7593 11.3053 22.3956 11.3749 15.7876C11.3749 15.7846 11.6132 14.7275 11.9845 14.3597L14.0662 12.2777C14.828 11.5124 16.2913 11.1666 17.3163 11.5095L17.7542 11.6556C18.7763 11.9982 19.8494 13.1283 20.1318 14.1694L21.1789 18.0128C21.4613 19.0569 21.0804 20.5424 20.3189 21.3042L18.9289 22.6944C20.2936 27.7466 24.2577 31.7114 29.3107 33.0794L30.7002 31.6889C31.4655 30.9236 32.9504 30.543 33.9923 30.825L37.8351 31.8759C38.8765 32.1621 40.0064 33.2284 40.3489 34.2501L40.4949 34.6944C40.8344 35.7165 40.4913 37.1795 39.7296 37.9379Z" fill="#3C3C3C"/>
</svg>
