<svg width="52" height="52" viewBox="0 0 52 52" fill="none" xmlns="http://www.w3.org/2000/svg">
<circle cx="26" cy="26" r="26" fill="#3C3C3C"/>
<path d="M40.6667 33.5415C40.6667 34.1919 40.4837 34.7948 40.1907 35.3253L30.8237 24.845L40.0891 16.7386C40.4495 17.3105 40.6667 17.9824 40.6667 18.7085V33.5415ZM25.8334 26.7479L38.7259 15.4672C38.1968 15.1776 37.6011 15 36.9584 15H14.7083C14.0649 15 13.4689 15.1776 12.942 15.4672L25.8334 26.7479ZM29.4277 26.0654L26.4434 28.6783C26.2689 28.8303 26.0515 28.9063 25.8334 28.9063C25.6151 28.9063 25.3977 28.8303 25.2232 28.6783L22.2382 26.0653L12.7528 36.6796C13.3213 37.0363 13.9876 37.25 14.7082 37.25H36.9584C37.6789 37.25 38.3455 37.0363 38.9139 36.6796L29.4277 26.0654ZM11.5777 16.7385C11.2173 17.3105 11 17.9824 11 18.7085V33.5416C11 34.192 11.1821 34.7949 11.4762 35.3254L20.8421 24.8432L11.5777 16.7385Z" fill="white"/>
</svg>
