<svg width="52" height="52" viewBox="0 0 52 52" fill="none" xmlns="http://www.w3.org/2000/svg">
<circle cx="26" cy="26" r="26" fill="#3C3C3C"/>
<path d="M26.1249 10C19.4299 10 14 15.4299 14 22.1249C14 28.8198 26.1249 42.333 26.1249 42.333C26.1249 42.333 38.2498 28.8198 38.2498 22.1249C38.2498 15.4299 32.8198 10 26.1249 10ZM26.1249 30.2081C21.6609 30.2081 18.0416 26.5889 18.0416 22.1249C18.0416 17.6609 21.6609 14.0416 26.1249 14.0416C30.5889 14.0416 34.2081 17.6609 34.2081 22.1249C34.2081 26.5889 30.5889 30.2081 26.1249 30.2081ZM26.1249 18.0833C23.8939 18.0833 22.0833 19.8939 22.0833 22.1249C22.0833 24.3559 23.8939 26.1665 26.1249 26.1665C28.3559 26.1665 30.1665 24.3559 30.1665 22.1249C30.1665 19.8939 28.3559 18.0833 26.1249 18.0833Z" fill="white"/>
</svg>
