<svg width="52" height="52" viewBox="0 0 52 52" fill="none" xmlns="http://www.w3.org/2000/svg">
<path d="M14.4444 0C6.46822 0 0 6.46822 0 14.4444V37.5556C0 45.5318 6.46822 52 14.4444 52H37.5556C45.5318 52 52 45.5318 52 37.5556V14.4444C52 6.46822 45.5318 0 37.5556 0H14.4444ZM43.3333 5.77778C44.928 5.77778 46.2222 7.072 46.2222 8.66667C46.2222 10.2613 44.928 11.5556 43.3333 11.5556C41.7387 11.5556 40.4444 10.2613 40.4444 8.66667C40.4444 7.072 41.7387 5.77778 43.3333 5.77778ZM26 11.5556C33.9762 11.5556 40.4444 18.0238 40.4444 26C40.4444 33.9762 33.9762 40.4444 26 40.4444C18.0238 40.4444 11.5556 33.9762 11.5556 26C11.5556 18.0238 18.0238 11.5556 26 11.5556ZM26 17.3333C23.7015 17.3333 21.4971 18.2464 19.8717 19.8717C18.2464 21.4971 17.3333 23.7015 17.3333 26C17.3333 28.2985 18.2464 30.5029 19.8717 32.1283C21.4971 33.7536 23.7015 34.6667 26 34.6667C28.2985 34.6667 30.5029 33.7536 32.1283 32.1283C33.7536 30.5029 34.6667 28.2985 34.6667 26C34.6667 23.7015 33.7536 21.4971 32.1283 19.8717C30.5029 18.2464 28.2985 17.3333 26 17.3333Z" fill="#3C3C3C"/>
</svg>
