<svg width="152" height="152" viewBox="0 0 152 152" fill="none" xmlns="http://www.w3.org/2000/svg">
<path d="M76 152C117.974 152 152 117.974 152 76C152 34.0264 117.974 0 76 0C34.0264 0 0 34.0264 0 76C0 117.974 34.0264 152 76 152Z" fill="#EF7F1A"/>
<path d="M77.75 9.91992L85.39 10.5599L85.24 12.2999L79.78 11.8499L79.62 13.7899L82.24 14.0099C83.1809 14.04 84.0837 14.3891 84.8 14.9999C85.0815 15.2737 85.2936 15.6107 85.4188 15.9828C85.5441 16.355 85.5787 16.7517 85.52 17.1399C85.5055 17.5615 85.391 17.9737 85.1858 18.3423C84.9806 18.7109 84.6907 19.0254 84.34 19.2599C83.4639 19.7575 82.4476 19.9509 81.45 19.8099L77 19.3799L77.75 9.91992ZM81.46 18.1199C81.909 18.1925 82.3694 18.1152 82.77 17.8999C82.9231 17.8024 83.0509 17.67 83.1431 17.5136C83.2352 17.3571 83.289 17.1811 83.3 16.9999C83.37 16.1699 82.83 15.7099 81.67 15.6099L79.49 15.4299L79.27 17.9699L81.46 18.1199Z" fill="white"/>
<path d="M94.1 20.4599L93.67 22.1699L86.54 20.3799L88.86 11.1699L95.86 12.9199L95.43 14.6299L90.6 13.4099L90.09 15.4099L94.37 16.4899L93.95 18.1499L89.68 17.0699L89.14 19.1999L94.1 20.4599Z" fill="white"/>
<path d="M96.85 22.9301C96.3064 22.2617 95.96 21.4547 95.85 20.6001C95.7311 19.714 95.8664 18.8124 96.24 18.0001C96.5654 17.1861 97.1129 16.4799 97.8201 15.9619C98.5273 15.4439 99.3658 15.1349 100.24 15.0701C101.156 14.9963 102.075 15.1581 102.91 15.5401C103.62 15.8296 104.261 16.2658 104.79 16.8201C105.259 17.3379 105.601 17.9575 105.79 18.6301L103.98 19.2701C103.862 18.8247 103.642 18.4126 103.339 18.0658C103.035 17.7189 102.656 17.4467 102.23 17.2701C101.73 17.0415 101.178 16.9484 100.63 17.0001C100.116 17.0493 99.6274 17.2435 99.22 17.5601C98.7785 17.8941 98.4334 18.3393 98.22 18.8501C97.9848 19.3485 97.8913 19.9021 97.95 20.4501C97.9989 20.9668 98.1931 21.4591 98.51 21.8701C98.8433 22.3124 99.2887 22.6576 99.8 22.8701C100.217 23.0591 100.672 23.1502 101.129 23.1363C101.587 23.1224 102.035 23.004 102.44 22.7901L103.22 24.5401C102.601 24.8594 101.916 25.0273 101.22 25.0301C100.455 25.0272 99.6983 24.8637 99 24.5501C98.1574 24.2014 97.4175 23.6439 96.85 22.9301Z" fill="white"/>
<path d="M116 23.3601L110.76 31.2701L109 30.0601L113.26 23.6401L109.68 21.2701L105.43 27.6901L103.61 26.4901L108.85 18.5801L116 23.3601Z" fill="white"/>
<path d="M124.92 31.5102L118.32 38.3302L116.76 36.8202L122.12 31.2902L119.78 29.0002L118.36 30.3702C117.581 31.1499 116.738 31.8624 115.84 32.5002C115.257 32.9375 114.565 33.2072 113.84 33.2802C113.527 33.2933 113.214 33.2385 112.924 33.1194C112.634 33.0003 112.374 32.8197 112.16 32.5902C111.901 32.3306 111.673 32.042 111.48 31.7302L112.87 30.4902C112.935 30.6069 113.02 30.7117 113.12 30.8002C113.31 30.9796 113.556 31.0877 113.817 31.1059C114.078 31.1242 114.337 31.0514 114.55 30.9002C115.395 30.3948 116.171 29.7831 116.86 29.0802L119.63 26.4102L124.92 31.5102Z" fill="white"/>
<path d="M125 43.8601L122.44 40.2701L120.3 40.7701L119 38.9301L129.19 36.8701L130.45 38.6401L125.18 47.6401L123.84 45.7701L125 43.8601ZM126 42.3301L128 39.0001L124.17 39.8801L126 42.3301Z" fill="white"/>
<path d="M135.35 51.12L134 48.4L127.11 51.83L126.11 49.89L133.01 46.46L131.66 43.75L133.26 42.96L137 50.33L135.35 51.12Z" fill="white"/>
<path d="M140.44 61.0802L131.35 63.8202L130.72 61.7102L134.45 60.5902L133.2 56.4602L129.47 57.5902L128.84 55.4802L137.93 52.7402L138.56 54.8402L135 55.9202L136.24 60.0502L139.81 59.0002L140.44 61.0802Z" fill="white"/>
<path d="M138 72.4504C137.741 72.7917 137.407 73.0692 137.024 73.2616C136.64 73.454 136.218 73.5562 135.79 73.5604C135.331 73.6277 134.863 73.5878 134.422 73.4438C133.982 73.2998 133.58 73.0556 133.25 72.7304C132.574 71.9524 132.195 70.9607 132.18 69.9304L131.84 65.6604L141.3 64.9004L141.47 67.0804L138.36 67.3304L138.56 69.7304C138.694 70.6746 138.496 71.6362 138 72.4504ZM142 74.2704L142.17 76.4404L132.71 77.2004L132.61 75.0004L142 74.2704ZM134.34 71.0004C134.508 71.1509 134.707 71.2629 134.923 71.3285C135.139 71.3942 135.366 71.4119 135.59 71.3804C136.59 71.3004 137.02 70.6604 136.92 69.4504L136.76 67.4504L133.65 67.6904L133.81 69.6904C133.821 70.177 134.01 70.6428 134.34 71.0004Z" fill="white"/>
<path d="M142 80.3003L141.72 82.4703L135.58 81.6603L141.13 86.9603L140.86 88.9603L131.45 87.7303L131.73 85.5803L137.85 86.3803L132.32 81.0803L132.59 79.0303L142 80.3003ZM144.43 82.3903L144.24 83.8803C143.58 83.8103 143.24 84.1403 143.11 84.8803C143.049 85.1744 143.099 85.4806 143.25 85.7403C143.334 85.85 143.439 85.9413 143.559 86.0085C143.68 86.0756 143.813 86.117 143.95 86.1303L143.75 87.6203C143.459 87.596 143.177 87.5059 142.926 87.357C142.675 87.208 142.461 87.004 142.3 86.7603C141.991 86.1419 141.896 85.4384 142.03 84.7603C142.26 83.0003 143.06 82.2203 144.43 82.3903Z" fill="white"/>
<path d="M131.31 100.93C130.802 101.074 130.259 101.039 129.774 100.832C129.288 100.624 128.888 100.256 128.64 99.7897C128.37 99.2335 128.246 98.6173 128.28 97.9997C128.31 97.2803 128.459 96.5707 128.72 95.8997C128.958 95.287 129.27 94.706 129.65 94.1697C130.03 93.626 130.485 93.138 131 92.7197L132.23 93.9197C131.845 94.2284 131.508 94.5924 131.23 94.9997C130.934 95.398 130.695 95.8356 130.52 96.2997C130.298 96.816 130.208 97.3799 130.26 97.9397C130.264 98.1572 130.332 98.3687 130.457 98.5469C130.582 98.7251 130.757 98.8619 130.96 98.9397C131.108 99.001 131.27 99.0212 131.428 98.9983C131.586 98.9755 131.736 98.9103 131.86 98.8097C132.172 98.543 132.407 98.1977 132.54 97.8097L133.38 95.6497L134.92 96.2397L134.15 98.2397C133.998 98.5747 133.956 98.9493 134.03 99.3097C134.063 99.4511 134.132 99.5816 134.23 99.6885C134.328 99.7954 134.452 99.8751 134.59 99.9197C134.758 99.9818 134.939 99.9978 135.115 99.9662C135.29 99.9345 135.455 99.8563 135.59 99.7397C135.953 99.4233 136.226 99.0161 136.38 98.5597C136.534 98.1545 136.635 97.731 136.68 97.2997C136.745 96.8487 136.745 96.3907 136.68 95.9397H138.51C138.597 97.0513 138.422 98.1678 138 99.1997C137.765 99.8464 137.428 100.451 137 100.99C136.627 101.459 136.138 101.821 135.58 102.04C135.079 102.24 134.521 102.24 134.02 102.04C133.614 101.894 133.265 101.625 133.02 101.27C132.775 100.905 132.637 100.479 132.62 100.04C132.281 100.459 131.825 100.769 131.31 100.93Z" fill="white"/>
<path d="M125.26 107.71L127.51 103.92L126.19 102.16L127.34 100.22L133.34 108.7L132.23 110.57L121.9 109.37L123.08 107.37L125.26 107.71ZM127.05 107.96L130.94 108.52L128.58 105.37L127.05 107.96Z" fill="white"/>
<path d="M115.63 116.41L119.84 120.22L118.26 115L118.91 114.28L124.17 115.28L120.05 111.53L121.43 110L128.43 116.38L127.21 117.73L120.45 116.39L122.45 122.95L121.23 124.29L114.23 117.92L115.63 116.41Z" fill="white"/>
<path d="M107.87 124.94L106.81 123.54L112.68 119.11L118.39 126.69L112.66 131L111.6 129.59L115.6 126.59L114.34 125L110.82 127.65L109.82 126.29L113.34 123.64L112 121.83L107.87 124.94Z" fill="white"/>
<path d="M104.29 135.23C103.814 135.246 103.34 135.163 102.899 134.985C102.457 134.808 102.058 134.54 101.725 134.2C101.393 133.859 101.136 133.453 100.969 133.007C100.803 132.561 100.732 132.085 100.76 131.61C100.823 130.977 101.07 130.375 101.47 129.88C101.947 129.304 102.54 128.834 103.21 128.5L104.91 127.6L103.68 125.29L105.63 124.29L110.06 132.69L106.42 134.61C105.76 134.961 105.035 135.172 104.29 135.23ZM103 131.1C102.913 131.313 102.877 131.544 102.897 131.773C102.916 132.003 102.989 132.224 103.11 132.42C103.202 132.627 103.34 132.81 103.513 132.955C103.686 133.101 103.89 133.205 104.11 133.26C104.641 133.329 105.181 133.217 105.64 132.94L107.22 132.1L105.68 129.19L104.1 130.02C103.619 130.242 103.231 130.624 103 131.1Z" fill="white"/>
<path d="M77.3002 142.09L69.6502 141.8L69.7102 140.05L75.1902 140.26L75.2602 138.31L72.6302 138.21C71.6987 138.238 70.7852 137.949 70.0402 137.39C69.7447 137.129 69.5154 136.801 69.3711 136.434C69.2268 136.068 69.1716 135.672 69.2102 135.28C69.2074 134.857 69.3047 134.441 69.4942 134.063C69.6837 133.686 69.9599 133.359 70.3002 133.11C71.1514 132.571 72.1578 132.332 73.1602 132.43L77.6602 132.6L77.3002 142.09ZM73.2202 134.09C72.7671 134.046 72.3119 134.148 71.9202 134.38C71.7609 134.491 71.6331 134.641 71.549 134.817C71.465 134.992 71.4275 135.186 71.4402 135.38C71.4402 136.21 71.9702 136.65 73.1302 136.69L75.3202 136.77L75.4202 134.23L73.2202 134.09Z" fill="white"/>
<path d="M60.5102 132.32L60.8602 130.59L68.0602 132.05L66.1802 141.35L59.1802 139.93L59.5302 138.2L64.4202 139.2L64.8302 137.2L60.5102 136.33L60.8402 134.65L65.1602 135.53L65.6002 133.37L60.5102 132.32Z" fill="white"/>
<path d="M57.6199 130C58.1904 130.649 58.5741 131.44 58.7299 132.29C58.8775 133.165 58.7841 134.064 58.4599 134.89C58.1561 135.72 57.6303 136.449 56.9399 137C56.2641 137.544 55.4506 137.891 54.5899 138C53.6789 138.117 52.753 138 51.8999 137.66C51.19 137.387 50.5435 136.972 49.9999 136.44C49.4944 135.949 49.1109 135.346 48.8799 134.68L50.6499 133.96C50.7936 134.393 51.034 134.787 51.3528 135.113C51.6717 135.438 52.0605 135.687 52.4899 135.84C53.001 136.042 53.5549 136.111 54.0999 136.04C54.6132 135.965 55.095 135.747 55.4899 135.41C55.9085 135.052 56.2257 134.59 56.4099 134.07C56.6136 133.563 56.6792 133.011 56.5999 132.47C56.5347 131.956 56.319 131.472 55.9799 131.08C55.6214 130.662 55.1593 130.344 54.6399 130.16C54.2145 129.992 53.7564 129.924 53.3006 129.961C52.8447 129.997 52.4033 130.137 52.0099 130.37L51.1499 128.65C51.7608 128.3 52.4465 128.101 53.1499 128.07C53.9182 128.038 54.6847 128.168 55.3999 128.45C56.2587 128.772 57.0223 129.305 57.6199 130Z" fill="white"/>
<path d="M38.4502 130.44L43.3202 122.3L45.1902 123.42L41.2402 130L44.9202 132.2L48.8702 125.59L50.7402 126.71L45.8702 134.85L38.4502 130.44Z" fill="white"/>
<path d="M29.2002 122.71L35.4702 115.59L37.1002 117L32.0002 122.8L34.4502 125L35.8102 123.56C36.5498 122.747 37.3559 121.998 38.2202 121.32C38.7698 120.86 39.4329 120.556 40.1402 120.44C40.4532 120.413 40.7683 120.454 41.0636 120.561C41.359 120.668 41.6274 120.838 41.8502 121.06C42.1197 121.307 42.3581 121.585 42.5602 121.89L41.2302 123.19C41.1644 123.073 41.076 122.971 40.9702 122.89C40.7676 122.722 40.513 122.631 40.2502 122.631C39.9874 122.631 39.7328 122.722 39.5302 122.89C38.7135 123.431 37.9706 124.077 37.3202 124.81L34.6702 127.61L29.2002 122.71Z" fill="white"/>
<path d="M28.5699 110.38L31.2899 113.85L33.4099 113.25L34.7999 115L24.7199 117.53L23.3799 115.82L28.2299 106.62L29.6499 108.43L28.5699 110.38ZM27.6899 112L25.7599 115.42L29.5499 114.36L27.6899 112Z" fill="white"/>
<path d="M17.8798 103.61L19.3498 106.26L26.0798 102.51L27.1398 104.41L20.4098 108.16L21.8798 110.8L20.3198 111.67L16.3198 104.48L17.8798 103.61Z" fill="white"/>
<path d="M12.3198 93.9002L21.3198 90.7402L21.9998 92.8102L18.3298 94.1102L19.7698 98.1702L23.4398 96.8802L24.1698 99.0002L15.1698 102.16L14.4898 100L17.9998 98.7902L16.5598 94.7302L13.0498 96.0002L12.3198 93.9002Z" fill="white"/>
<path d="M10.0801 80.8102L9.81006 78.6502L19.2201 77.4502L19.5001 79.6202L10.0801 80.8102ZM14.2101 82.4402C14.4543 82.0875 14.7759 81.7952 15.1502 81.5855C15.5245 81.3758 15.9417 81.2543 16.3701 81.2302C16.8242 81.1424 17.2924 81.1608 17.7383 81.284C18.1841 81.4072 18.5954 81.6317 18.9401 81.9402C19.6558 82.6841 20.0815 83.6596 20.1401 84.6902L20.6801 88.9402L11.2701 90.1402L11.0001 88.0002L14.1001 87.6102L13.7901 85.2102C13.6022 84.2662 13.7508 83.2861 14.2101 82.4402ZM18.0001 83.7402C17.8253 83.5962 17.6207 83.4928 17.401 83.4374C17.1814 83.3821 16.9522 83.3762 16.7301 83.4202C15.7301 83.5402 15.3401 84.2102 15.4901 85.4202L15.7401 87.4202L18.7901 87.0002L18.5401 85.0002C18.5141 84.5297 18.3229 84.0835 18.0001 83.7402Z" fill="white"/>
<path d="M7.3501 72.79L7.4701 71.29C8.1301 71.29 8.4701 70.98 8.5501 70.29C8.59457 69.9942 8.53065 69.6924 8.3701 69.44C8.29047 69.3198 8.18579 69.2183 8.06324 69.1423C7.94069 69.0664 7.80317 69.0178 7.6601 69L7.7901 67.5C8.08165 67.5108 8.36681 67.5885 8.62347 67.7273C8.88013 67.866 9.10139 68.062 9.2701 68.3C9.61863 68.9047 9.74923 69.6106 9.6401 70.3C9.4901 72.07 8.7301 72.88 7.3501 72.79ZM9.8801 74.79L10.0601 72.61L16.2201 73.13L10.4401 68.13L10.6101 66L20.0701 66.8L19.8901 69L13.7401 68.48L19.5101 73.48L19.3301 75.54L9.8801 74.79Z" fill="white"/>
<path d="M19.5802 53.6805C20.0588 53.5104 20.5815 53.5104 21.0602 53.6805C21.589 53.8423 22.0362 54.2 22.3102 54.6805C22.6043 55.2237 22.7556 55.8327 22.7502 56.4505C22.7557 57.1711 22.6408 57.8877 22.4102 58.5705C22.2006 59.1931 21.9151 59.7876 21.5602 60.3405C21.2059 60.901 20.7751 61.4092 20.2802 61.8505L19.0002 60.7205C19.3847 60.3962 19.7213 60.0191 20.0002 59.6005C20.2726 59.1831 20.491 58.7328 20.6502 58.2605C20.843 57.7331 20.9014 57.1661 20.8202 56.6105C20.7994 56.4018 20.7184 56.2038 20.587 56.0404C20.4556 55.877 20.2795 55.7554 20.0802 55.6905C19.9309 55.632 19.7681 55.6169 19.6106 55.647C19.4531 55.6771 19.3074 55.7511 19.1902 55.8605C18.89 56.1295 18.6688 56.4752 18.5502 56.8605L17.8202 59.0605L16.2502 58.5405L16.9302 56.4905C17.0539 56.1649 17.0783 55.8099 17.0002 55.4705C16.9602 55.3311 16.8849 55.2044 16.7815 55.1028C16.6781 55.0012 16.5502 54.928 16.4102 54.8905C16.2382 54.8349 16.0545 54.8269 15.8784 54.8674C15.7023 54.9079 15.5405 54.9954 15.4102 55.1205C15.0618 55.4503 14.8095 55.8685 14.6802 56.3305C14.5433 56.7415 14.4593 57.1683 14.4302 57.6005C14.3931 58.0686 14.42 58.5396 14.5102 59.0005L12.6802 59.1005C12.5049 57.9647 12.6149 56.8032 13.0002 55.7205C13.2128 55.0588 13.5339 54.437 13.9502 53.8805C14.3065 53.399 14.7774 53.014 15.3202 52.7605C15.8097 52.5431 16.3631 52.5181 16.8702 52.6905C17.2693 52.8278 17.6178 53.0822 17.8702 53.4205C18.1323 53.7736 18.2916 54.1924 18.3302 54.6305C18.644 54.1974 19.0789 53.8669 19.5802 53.6805Z" fill="white"/>
<path d="M25.3099 46.6301L23.2399 50.5201L24.6399 52.2201L23.5799 54.2201L17.1899 46.0001L18.1899 44.0801L28.5599 44.7901L27.4799 46.7901L25.3099 46.6301ZM23.5099 46.4601L19.5999 46.0801L22.0999 49.0801L23.5099 46.4601Z" fill="white"/>
<path d="M34.55 37.4601L30.17 33.8501L32 39.0001L31.38 39.7601L26.07 39.0001L30.36 42.5601L29.05 44.1501L21.73 38.0901L22.89 36.6901L29.7 37.6901L27.39 31.2301L28.55 29.8301L35.87 35.8301L34.55 37.4601Z" fill="white"/>
<path d="M41.8898 28.5898L42.9998 29.9998L37.3398 34.6898L31.2998 27.3298L36.8198 22.7598L37.9998 24.1098L34.1098 27.2998L35.4198 28.8798L38.8098 26.0698L39.8998 27.3898L36.5098 30.1998L37.9098 31.8898L41.8898 28.5898Z" fill="white"/>
<path d="M45.0001 18.1403C45.6359 18.0551 46.2826 18.1654 46.8542 18.4566C47.4258 18.7477 47.8952 19.2059 48.2001 19.7703C48.5399 20.3188 48.7103 20.9554 48.6901 21.6003C48.6621 22.2323 48.4463 22.8416 48.0701 23.3503C47.6153 23.9489 47.0437 24.4489 46.3901 24.8203L44.7401 25.8203L46.0801 28.0003L44.1801 29.1103L39.3701 21.0003L42.9101 18.9203C43.5427 18.5133 44.2555 18.2473 45.0001 18.1403ZM46.4601 22.2003C46.5329 21.9845 46.5545 21.7547 46.5232 21.5291C46.492 21.3035 46.4088 21.0882 46.2801 20.9003C46.1773 20.6941 46.0281 20.5145 45.8442 20.3757C45.6602 20.2369 45.4466 20.1426 45.2201 20.1003C44.6837 20.0523 44.1471 20.19 43.7001 20.4903L42.1601 21.4003L43.8301 24.2403L45.3801 23.3303C45.8618 23.0891 46.2464 22.6903 46.4701 22.2003H46.4601Z" fill="white"/>
</svg>
