<svg width="62" height="56" viewBox="0 0 62 56" fill="none" xmlns="http://www.w3.org/2000/svg">
<path d="M21.6793 4.51987C24.4247 4.47539 27.1492 5.00327 29.6793 6.06987L31.6793 2.06987C31.9553 1.55634 32.4223 1.172 32.9793 0.999868C33.2667 0.873411 33.583 0.827095 33.8946 0.865827C34.2063 0.904559 34.5016 1.0269 34.7493 1.21987C39.1817 3.42514 42.9628 6.74773 45.7194 10.86C48.4761 14.9722 50.1132 19.732 50.4693 24.6699C50.4828 25.2485 50.2885 25.8129 49.9216 26.2606C49.5546 26.7082 49.0394 27.0096 48.4693 27.1099L43.8193 27.3299C43.6584 31.3415 42.4332 35.2381 40.2693 38.6199L42.9393 44.3799H59.3293C59.6241 44.3624 59.9192 44.4076 60.1953 44.5125C60.4713 44.6174 60.722 44.7795 60.9308 44.9884C61.1396 45.1972 61.3018 45.4478 61.4067 45.7239C61.5116 45.9999 61.5568 46.2951 61.5393 46.5899V53.2399C61.5015 53.8016 61.2518 54.328 60.8405 54.7125C60.4293 55.097 59.8873 55.311 59.3243 55.311C58.7613 55.311 58.2193 55.097 57.8081 54.7125C57.3969 54.328 57.1471 53.8016 57.1093 53.2399V48.8099H21.6793C15.8876 48.6868 10.3745 46.2996 6.32199 42.16C2.26944 38.0204 -8.39233e-05 32.4579 -8.39233e-05 26.6649C-8.39233e-05 20.8718 2.26944 15.3093 6.32199 11.1697C10.3745 7.03014 15.8876 4.64295 21.6793 4.51987ZM43.5993 22.8999L45.8193 22.6799C45.2249 19.239 43.9124 15.962 41.9671 13.0622C40.0219 10.1624 37.4876 7.70494 34.5293 5.84987L33.6393 7.84987C38.8229 11.3481 42.4054 16.7613 43.5993 22.8999ZM21.6793 39.9999C24.3065 40.0018 26.8754 39.2251 29.0614 37.7677C31.2473 36.3103 32.9523 34.2378 33.9609 31.8119C34.9695 29.3859 35.2364 26.7155 34.728 24.1379C34.2196 21.5604 32.9586 19.1913 31.1043 17.3301C29.2501 15.4689 26.8858 14.199 24.3102 13.6809C21.7345 13.1628 19.0631 13.4197 16.6334 14.4191C14.2037 15.4186 12.1248 17.1158 10.6592 19.2962C9.19363 21.4767 8.40722 24.0426 8.39931 26.6699C8.39928 30.1966 9.79683 33.5795 12.2859 36.078C14.7749 38.5764 18.1526 39.9866 21.6793 39.9999Z" fill="white"/>
</svg>
