<svg aria-hidden="true" style="position: absolute; width: 0; height: 0; overflow: hidden;" version="1.1" xmlns="http://www.w3.org/2000/svg" xmlns:xlink="http://www.w3.org/1999/xlink">
<defs>
<symbol id="icon-arrow_down" viewBox="0 0 32 32">
<path fill="none" stroke="#fff" style="stroke: var(--color1, #fff)" stroke-linejoin="miter" stroke-linecap="round" stroke-miterlimit="4" stroke-width="0.6154" d="M16 0.615v30.769"></path>
<path fill="none" stroke="#fff" style="stroke: var(--color1, #fff)" stroke-linejoin="miter" stroke-linecap="round" stroke-miterlimit="4" stroke-width="0.6154" d="M16 31.428l4.351-4.351"></path>
<path fill="none" stroke="#fff" style="stroke: var(--color1, #fff)" stroke-linejoin="miter" stroke-linecap="round" stroke-miterlimit="4" stroke-width="0.6154" d="M11.692 27.077l4.351 4.351"></path>
</symbol>
<symbol id="icon-arrow-up" viewBox="0 0 32 32">
<path fill="#fff" style="fill: var(--color1, #fff)" d="M16.595 0.246c-0.329-0.329-0.862-0.329-1.191 0l-5.359 5.359c-0.329 0.329-0.329 0.862 0 1.191s0.862 0.329 1.191 0l4.764-4.764 4.764 4.764c0.329 0.329 0.862 0.329 1.191 0s0.329-0.862 0-1.191l-5.359-5.359zM16.842 31.999v-31.158h-1.684v31.158h1.684z"></path>
</symbol>
<symbol id="icon-button_measure" viewBox="0 0 32 32">
<path fill="#ef7f1a" style="fill: var(--color2, #ef7f1a)" d="M16 32c8.837 0 16-7.163 16-16s-7.163-16-16-16c-8.837 0-16 7.163-16 16s7.163 16 16 16z"></path>
<path fill="#fff" style="fill: var(--color1, #fff)" d="M16.368 2.088l1.608 0.135-0.032 0.366-1.149-0.095-0.034 0.408 0.552 0.046c0.198 0.006 0.388 0.080 0.539 0.208 0.059 0.058 0.104 0.129 0.13 0.207s0.034 0.162 0.021 0.244c-0.003 0.089-0.027 0.176-0.070 0.253s-0.104 0.144-0.178 0.193c-0.184 0.105-0.398 0.145-0.608 0.116l-0.937-0.091 0.158-1.992zM17.149 3.815c0.095 0.015 0.191-0.001 0.276-0.046 0.032-0.021 0.059-0.048 0.079-0.081s0.031-0.070 0.033-0.108c0.015-0.175-0.099-0.272-0.343-0.293l-0.459-0.038-0.046 0.535 0.461 0.032z"></path>
<path fill="#fff" style="fill: var(--color1, #fff)" d="M19.811 4.307l-0.091 0.36-1.501-0.377 0.488-1.939 1.474 0.368-0.091 0.36-1.017-0.257-0.107 0.421 0.901 0.227-0.088 0.349-0.899-0.227-0.114 0.448 1.044 0.265z"></path>
<path fill="#fff" style="fill: var(--color1, #fff)" d="M20.39 4.827c-0.114-0.141-0.187-0.311-0.211-0.491-0.025-0.187 0.003-0.376 0.082-0.547 0.069-0.171 0.184-0.32 0.333-0.429s0.325-0.174 0.509-0.188c0.193-0.016 0.386 0.019 0.562 0.099 0.149 0.061 0.284 0.153 0.396 0.269 0.099 0.109 0.171 0.239 0.211 0.381l-0.381 0.135c-0.025-0.094-0.071-0.181-0.135-0.254s-0.144-0.13-0.233-0.168c-0.105-0.048-0.222-0.068-0.337-0.057-0.108 0.010-0.211 0.051-0.297 0.118-0.093 0.070-0.166 0.164-0.211 0.272-0.050 0.105-0.069 0.221-0.057 0.337 0.010 0.109 0.051 0.212 0.118 0.299 0.070 0.093 0.164 0.166 0.272 0.211 0.088 0.040 0.183 0.059 0.28 0.056s0.191-0.028 0.276-0.073l0.164 0.368c-0.13 0.067-0.275 0.103-0.421 0.103-0.161-0.001-0.32-0.035-0.467-0.101-0.177-0.073-0.333-0.191-0.453-0.341z"></path>
<path fill="#fff" style="fill: var(--color1, #fff)" d="M24.421 4.918l-1.103 1.665-0.371-0.255 0.897-1.352-0.754-0.499-0.895 1.352-0.383-0.253 1.103-1.665 1.505 1.006z"></path>
<path fill="#fff" style="fill: var(--color1, #fff)" d="M26.299 6.634l-1.389 1.436-0.328-0.318 1.128-1.164-0.493-0.482-0.299 0.288c-0.164 0.164-0.341 0.314-0.531 0.448-0.123 0.092-0.268 0.149-0.421 0.164-0.066 0.003-0.132-0.009-0.193-0.034s-0.116-0.063-0.161-0.111c-0.054-0.055-0.103-0.115-0.143-0.181l0.293-0.261c0.014 0.025 0.032 0.047 0.053 0.065 0.040 0.038 0.092 0.061 0.147 0.064s0.109-0.011 0.154-0.043c0.178-0.106 0.341-0.235 0.486-0.383l0.583-0.562 1.114 1.074z"></path>
<path fill="#fff" style="fill: var(--color1, #fff)" d="M26.316 9.234l-0.539-0.756-0.451 0.105-0.274-0.387 2.145-0.434 0.265 0.373-1.109 1.895-0.282-0.394 0.244-0.402zM26.526 8.912l0.421-0.701-0.806 0.185 0.385 0.516z"></path>
<path fill="#fff" style="fill: var(--color1, #fff)" d="M28.495 10.762l-0.284-0.573-1.451 0.722-0.211-0.408 1.453-0.722-0.284-0.571 0.337-0.166 0.787 1.552-0.347 0.166z"></path>
<path fill="#fff" style="fill: var(--color1, #fff)" d="M29.566 12.859l-1.914 0.577-0.133-0.444 0.785-0.236-0.263-0.869-0.785 0.238-0.133-0.444 1.914-0.577 0.133 0.442-0.749 0.227 0.261 0.869 0.752-0.221 0.133 0.438z"></path>
<path fill="#fff" style="fill: var(--color1, #fff)" d="M29.053 15.253c-0.055 0.072-0.125 0.13-0.205 0.171s-0.17 0.062-0.26 0.063c-0.097 0.014-0.195 0.006-0.288-0.025s-0.177-0.082-0.247-0.15c-0.142-0.164-0.222-0.373-0.225-0.589l-0.072-0.899 1.992-0.16 0.036 0.459-0.655 0.053 0.042 0.505c0.028 0.199-0.013 0.401-0.118 0.573zM29.895 15.636l0.036 0.457-1.992 0.16-0.021-0.463 1.977-0.154zM28.282 14.947c0.035 0.032 0.077 0.055 0.123 0.069s0.093 0.018 0.14 0.011c0.211-0.017 0.301-0.152 0.28-0.406l-0.034-0.421-0.655 0.051 0.034 0.421c0.002 0.102 0.042 0.2 0.112 0.276z"></path>
<path fill="#fff" style="fill: var(--color1, #fff)" d="M29.895 16.905l-0.059 0.457-1.293-0.171 1.168 1.116-0.057 0.421-1.981-0.259 0.059-0.453 1.288 0.168-1.164-1.116 0.057-0.432 1.981 0.267zM30.406 17.345l-0.040 0.314c-0.139-0.015-0.211 0.055-0.238 0.211-0.013 0.062-0.002 0.126 0.029 0.181 0.018 0.023 0.040 0.042 0.065 0.056s0.053 0.023 0.082 0.026l-0.042 0.314c-0.061-0.005-0.121-0.024-0.173-0.055s-0.098-0.074-0.132-0.126c-0.065-0.13-0.085-0.278-0.057-0.421 0.048-0.371 0.217-0.535 0.505-0.499z"></path>
<path fill="#fff" style="fill: var(--color1, #fff)" d="M27.644 21.248c-0.107 0.030-0.221 0.023-0.323-0.021s-0.187-0.121-0.239-0.219c-0.057-0.117-0.083-0.247-0.076-0.377 0.006-0.151 0.038-0.301 0.093-0.442 0.050-0.129 0.116-0.251 0.196-0.364 0.080-0.114 0.176-0.217 0.284-0.305l0.259 0.253c-0.081 0.065-0.152 0.142-0.211 0.227-0.062 0.084-0.113 0.176-0.149 0.274-0.047 0.109-0.066 0.227-0.055 0.345 0.001 0.046 0.015 0.090 0.041 0.128s0.063 0.066 0.106 0.083c0.031 0.013 0.065 0.017 0.099 0.012s0.065-0.019 0.091-0.040c0.066-0.056 0.115-0.129 0.143-0.211l0.177-0.455 0.324 0.124-0.162 0.421c-0.032 0.071-0.041 0.149-0.025 0.225 0.007 0.030 0.021 0.057 0.042 0.080s0.047 0.039 0.076 0.049c0.035 0.013 0.073 0.016 0.111 0.010s0.072-0.023 0.1-0.048c0.076-0.067 0.134-0.152 0.166-0.248 0.032-0.085 0.054-0.174 0.063-0.265 0.014-0.095 0.014-0.191 0-0.286h0.385c0.018 0.234-0.019 0.469-0.107 0.686-0.049 0.136-0.12 0.263-0.211 0.377-0.079 0.099-0.181 0.175-0.299 0.221-0.105 0.042-0.223 0.042-0.328 0-0.085-0.031-0.159-0.087-0.211-0.162-0.052-0.077-0.081-0.167-0.084-0.259-0.071 0.088-0.167 0.153-0.276 0.187z"></path>
<path fill="#fff" style="fill: var(--color1, #fff)" d="M26.371 22.676l0.474-0.798-0.278-0.371 0.242-0.408 1.263 1.785-0.234 0.394-2.175-0.253 0.248-0.421 0.459 0.072zM26.747 22.728l0.819 0.118-0.497-0.663-0.322 0.545z"></path>
<path fill="#fff" style="fill: var(--color1, #fff)" d="M24.343 24.507l0.886 0.802-0.333-1.099 0.137-0.152 1.107 0.211-0.867-0.789 0.291-0.322 1.474 1.343-0.257 0.284-1.423-0.282 0.421 1.381-0.257 0.282-1.474-1.341 0.295-0.318z"></path>
<path fill="#fff" style="fill: var(--color1, #fff)" d="M22.71 26.303l-0.223-0.295 1.236-0.933 1.202 1.596-1.206 0.907-0.223-0.297 0.842-0.632-0.265-0.335-0.741 0.558-0.211-0.286 0.741-0.558-0.282-0.381-0.869 0.655z"></path>
<path fill="#fff" style="fill: var(--color1, #fff)" d="M21.956 28.469c-0.1 0.003-0.2-0.014-0.293-0.052s-0.177-0.094-0.247-0.165c-0.070-0.072-0.124-0.157-0.159-0.251s-0.050-0.194-0.044-0.294c0.013-0.133 0.065-0.26 0.149-0.364 0.1-0.121 0.225-0.22 0.366-0.291l0.358-0.189-0.259-0.486 0.411-0.211 0.933 1.768-0.766 0.404c-0.139 0.074-0.292 0.118-0.448 0.131zM21.684 27.6c-0.018 0.045-0.026 0.093-0.022 0.142s0.019 0.095 0.045 0.136c0.019 0.044 0.048 0.082 0.085 0.113s0.079 0.053 0.126 0.064c0.112 0.015 0.225-0.009 0.322-0.067l0.333-0.177-0.324-0.613-0.333 0.175c-0.101 0.047-0.183 0.127-0.232 0.227z"></path>
<path fill="#fff" style="fill: var(--color1, #fff)" d="M16.274 29.914l-1.611-0.061 0.013-0.368 1.154 0.044 0.015-0.411-0.554-0.021c-0.196 0.006-0.388-0.055-0.545-0.173-0.062-0.055-0.11-0.124-0.141-0.201s-0.042-0.16-0.034-0.243c-0.001-0.089 0.020-0.177 0.060-0.256s0.098-0.148 0.17-0.201c0.179-0.113 0.391-0.164 0.602-0.143l0.947 0.036-0.076 1.998zM15.415 28.229c-0.095-0.009-0.191 0.012-0.274 0.061-0.034 0.023-0.060 0.055-0.078 0.092s-0.026 0.078-0.023 0.119c0 0.175 0.112 0.267 0.356 0.276l0.461 0.017 0.021-0.535-0.463-0.029z"></path>
<path fill="#fff" style="fill: var(--color1, #fff)" d="M12.739 27.857l0.074-0.364 1.516 0.307-0.396 1.958-1.474-0.299 0.074-0.364 1.029 0.211 0.086-0.421-0.909-0.183 0.069-0.354 0.909 0.185 0.093-0.455-1.072-0.221z"></path>
<path fill="#fff" style="fill: var(--color1, #fff)" d="M12.13 27.368c0.12 0.137 0.201 0.303 0.234 0.482 0.031 0.184 0.011 0.373-0.057 0.547-0.064 0.175-0.175 0.328-0.32 0.444-0.142 0.115-0.314 0.188-0.495 0.211-0.192 0.025-0.387 0-0.566-0.072-0.149-0.057-0.286-0.145-0.4-0.257-0.106-0.103-0.187-0.23-0.236-0.371l0.373-0.152c0.030 0.091 0.081 0.174 0.148 0.243s0.149 0.121 0.239 0.153c0.108 0.043 0.224 0.057 0.339 0.042 0.108-0.016 0.21-0.062 0.293-0.133 0.088-0.075 0.155-0.173 0.194-0.282 0.043-0.107 0.057-0.223 0.040-0.337-0.014-0.108-0.059-0.21-0.131-0.293-0.075-0.088-0.173-0.155-0.282-0.194-0.090-0.035-0.186-0.050-0.282-0.042s-0.189 0.037-0.272 0.086l-0.181-0.362c0.129-0.074 0.273-0.116 0.421-0.122 0.162-0.007 0.323 0.021 0.474 0.080 0.181 0.068 0.342 0.18 0.467 0.326z"></path>
<path fill="#fff" style="fill: var(--color1, #fff)" d="M8.095 27.461l1.025-1.714 0.394 0.236-0.832 1.385 0.775 0.463 0.832-1.392 0.394 0.236-1.025 1.714-1.562-0.928z"></path>
<path fill="#fff" style="fill: var(--color1, #fff)" d="M6.147 25.834l1.32-1.499 0.343 0.297-1.074 1.221 0.516 0.463 0.286-0.303c0.156-0.171 0.325-0.329 0.507-0.472 0.116-0.097 0.255-0.161 0.404-0.185 0.066-0.006 0.132 0.003 0.194 0.025s0.119 0.058 0.166 0.105c0.057 0.052 0.107 0.111 0.149 0.175l-0.28 0.274c-0.014-0.025-0.032-0.046-0.055-0.063-0.043-0.035-0.096-0.055-0.152-0.055s-0.109 0.019-0.152 0.055c-0.172 0.114-0.328 0.25-0.465 0.404l-0.558 0.589-1.152-1.032z"></path>
<path fill="#fff" style="fill: var(--color1, #fff)" d="M6.015 23.238l0.573 0.731 0.446-0.126 0.293 0.368-2.122 0.533-0.282-0.36 1.021-1.937 0.299 0.381-0.227 0.411zM5.829 23.579l-0.406 0.72 0.798-0.223-0.392-0.497z"></path>
<path fill="#fff" style="fill: var(--color1, #fff)" d="M3.764 21.813l0.309 0.558 1.417-0.789 0.223 0.4-1.417 0.789 0.309 0.556-0.328 0.183-0.842-1.514 0.328-0.183z"></path>
<path fill="#fff" style="fill: var(--color1, #fff)" d="M2.594 19.768l1.895-0.665 0.143 0.436-0.773 0.274 0.303 0.855 0.773-0.272 0.154 0.446-1.895 0.665-0.143-0.455 0.739-0.255-0.303-0.855-0.739 0.267-0.154-0.442z"></path>
<path fill="#fff" style="fill: var(--color1, #fff)" d="M2.122 17.013l-0.057-0.455 1.981-0.253 0.059 0.457-1.983 0.251zM2.992 17.356c0.051-0.074 0.119-0.136 0.198-0.18s0.167-0.070 0.257-0.075c0.096-0.018 0.194-0.015 0.288 0.011s0.18 0.073 0.253 0.138c0.151 0.157 0.24 0.362 0.253 0.579l0.114 0.895-1.981 0.253-0.057-0.451 0.653-0.082-0.065-0.505c-0.040-0.199-0.008-0.405 0.088-0.583zM3.79 17.63c-0.037-0.030-0.080-0.052-0.126-0.064s-0.094-0.013-0.141-0.004c-0.211 0.025-0.293 0.166-0.261 0.421l0.053 0.421 0.642-0.088-0.053-0.421c-0.005-0.099-0.046-0.193-0.114-0.265z"></path>
<path fill="#fff" style="fill: var(--color1, #fff)" d="M1.547 15.324l0.025-0.316c0.139 0 0.211-0.065 0.227-0.211 0.009-0.062-0.004-0.126-0.038-0.179-0.017-0.025-0.039-0.047-0.065-0.063s-0.055-0.026-0.085-0.030l0.027-0.316c0.061 0.002 0.121 0.019 0.175 0.048s0.101 0.070 0.136 0.121c0.073 0.127 0.101 0.276 0.078 0.421-0.032 0.373-0.192 0.543-0.482 0.524zM2.080 15.745l0.038-0.459 1.297 0.109-1.217-1.053 0.036-0.448 1.992 0.168-0.038 0.463-1.295-0.109 1.215 1.053-0.038 0.434-1.989-0.158z"></path>
<path fill="#fff" style="fill: var(--color1, #fff)" d="M4.122 11.301c0.101-0.036 0.211-0.036 0.312 0 0.111 0.034 0.205 0.109 0.263 0.211 0.062 0.114 0.094 0.243 0.093 0.373 0.001 0.152-0.023 0.303-0.072 0.446-0.044 0.131-0.104 0.256-0.179 0.373-0.075 0.118-0.165 0.225-0.269 0.318l-0.269-0.238c0.081-0.068 0.152-0.148 0.211-0.236 0.057-0.088 0.103-0.183 0.137-0.282 0.041-0.111 0.053-0.23 0.036-0.347-0.004-0.044-0.021-0.086-0.049-0.12s-0.065-0.060-0.107-0.074c-0.031-0.012-0.066-0.015-0.099-0.009s-0.064 0.022-0.088 0.045c-0.063 0.057-0.11 0.129-0.135 0.211l-0.154 0.463-0.331-0.109 0.143-0.432c0.026-0.069 0.031-0.143 0.015-0.215-0.008-0.029-0.024-0.056-0.046-0.077s-0.049-0.037-0.078-0.045c-0.036-0.012-0.075-0.013-0.112-0.005s-0.071 0.027-0.099 0.053c-0.073 0.069-0.126 0.157-0.154 0.255-0.029 0.087-0.046 0.176-0.053 0.267-0.008 0.099-0.002 0.198 0.017 0.295l-0.385 0.021c-0.037-0.239-0.014-0.484 0.067-0.712 0.045-0.139 0.112-0.27 0.2-0.387 0.075-0.101 0.174-0.182 0.288-0.236 0.103-0.046 0.22-0.051 0.326-0.015 0.084 0.029 0.157 0.082 0.211 0.154 0.055 0.074 0.089 0.162 0.097 0.255 0.066-0.091 0.158-0.161 0.263-0.2z"></path>
<path fill="#fff" style="fill: var(--color1, #fff)" d="M5.328 9.817l-0.436 0.819 0.295 0.358-0.223 0.421-1.345-1.731 0.211-0.404 2.183 0.149-0.227 0.421-0.457-0.034zM4.949 9.781l-0.823-0.080 0.526 0.632 0.297-0.552z"></path>
<path fill="#fff" style="fill: var(--color1, #fff)" d="M7.274 7.886l-0.922-0.76 0.385 1.084-0.131 0.16-1.118-0.16 0.903 0.749-0.276 0.335-1.541-1.276 0.244-0.295 1.434 0.211-0.486-1.36 0.244-0.295 1.541 1.263-0.278 0.343z"></path>
<path fill="#fff" style="fill: var(--color1, #fff)" d="M8.819 6.019l0.234 0.297-1.192 0.987-1.272-1.549 1.162-0.962 0.248 0.284-0.819 0.672 0.276 0.333 0.714-0.592 0.229 0.278-0.714 0.592 0.295 0.356 0.838-0.695z"></path>
<path fill="#fff" style="fill: var(--color1, #fff)" d="M9.474 3.819c0.134-0.018 0.27 0.005 0.39 0.067s0.219 0.158 0.283 0.277c0.072 0.115 0.107 0.25 0.103 0.385-0.006 0.133-0.051 0.261-0.131 0.368-0.096 0.126-0.216 0.231-0.354 0.309l-0.347 0.211 0.282 0.459-0.4 0.234-1.013-1.707 0.745-0.438c0.133-0.086 0.283-0.142 0.44-0.164zM9.781 4.674c0.015-0.045 0.020-0.094 0.013-0.141s-0.024-0.093-0.051-0.132c-0.022-0.043-0.053-0.081-0.092-0.11s-0.084-0.049-0.131-0.058c-0.113-0.010-0.226 0.019-0.32 0.082l-0.324 0.192 0.352 0.598 0.326-0.192c0.101-0.051 0.182-0.135 0.229-0.238h-0.002z"></path>
<path fill="#fff" style="fill: var(--color1, #fff)" d="M12.947 3.895c0.233 0 0.421-0.188 0.421-0.421s-0.188-0.421-0.421-0.421c-0.233 0-0.421 0.188-0.421 0.421s0.188 0.421 0.421 0.421z"></path>
<path fill="#fff" style="fill: var(--color1, #fff)" d="M19.053 29.158c0.233 0 0.421-0.188 0.421-0.421s-0.189-0.421-0.421-0.421c-0.233 0-0.421 0.188-0.421 0.421s0.189 0.421 0.421 0.421z"></path>
<path fill="#fff" style="fill: var(--color1, #fff)" d="M15.090 17.585c-1.030 0-1.865-0.835-1.865-1.865s0.835-1.865 1.865-1.865c1.030 0 1.865 0.835 1.865 1.865s-0.835 1.865-1.865 1.865z"></path>
<path fill="#fff" style="fill: var(--color1, #fff)" d="M15.090 11.057c0.578-0.009 1.152 0.102 1.684 0.326l0.421-0.842c0.058-0.108 0.156-0.189 0.274-0.225 0.061-0.027 0.127-0.036 0.193-0.028s0.128 0.034 0.18 0.075c0.933 0.464 1.729 1.164 2.309 2.030s0.925 1.868 1 2.907c0.003 0.122-0.038 0.241-0.115 0.335s-0.186 0.158-0.306 0.179l-0.979 0.046c-0.034 0.845-0.292 1.665-0.747 2.377l0.562 1.213h3.45c0.062-0.004 0.124 0.006 0.182 0.028s0.111 0.056 0.155 0.1c0.044 0.044 0.078 0.097 0.1 0.155s0.032 0.12 0.028 0.182v1.4c-0.008 0.118-0.060 0.229-0.147 0.31s-0.201 0.126-0.319 0.126-0.233-0.045-0.319-0.126c-0.087-0.081-0.139-0.192-0.147-0.31v-0.933h-7.459c-1.219-0.026-2.38-0.528-3.233-1.4s-1.331-2.043-1.331-3.262c0-1.22 0.478-2.391 1.331-3.262s2.014-1.374 3.233-1.4zM19.705 14.926l0.467-0.046c-0.125-0.724-0.401-1.414-0.811-2.025s-0.943-1.128-1.566-1.518l-0.187 0.421c1.091 0.736 1.846 1.876 2.097 3.168zM15.090 18.526c0.553 0 1.094-0.163 1.554-0.47s0.819-0.743 1.031-1.254c0.212-0.511 0.269-1.073 0.162-1.616s-0.372-1.041-0.763-1.433c-0.39-0.392-0.888-0.659-1.43-0.768s-1.105-0.055-1.616 0.155c-0.512 0.21-0.949 0.568-1.258 1.027s-0.474 0.999-0.476 1.552c0 0.742 0.294 1.455 0.818 1.981s1.235 0.823 1.978 0.826z"></path>
</symbol>
<symbol id="icon-close" viewBox="0 0 32 32">
<path fill="none" stroke="#ef7f1a" style="stroke: var(--color2, #ef7f1a)" stroke-linejoin="miter" stroke-linecap="butt" stroke-miterlimit="4" stroke-width="3" d="M8.070 7.949l15.506 15.778"></path>
<path fill="none" stroke="#ef7f1a" style="stroke: var(--color2, #ef7f1a)" stroke-linejoin="miter" stroke-linecap="butt" stroke-miterlimit="4" stroke-width="3" d="M8.699 23.737l15.222-15.778"></path>
</symbol>
<symbol id="icon-double-arrow" viewBox="0 0 32 32">
<path fill="#ef7f1a" style="fill: var(--color2, #ef7f1a)" d="M0.33 15.627c-0.206 0.206-0.206 0.54 0 0.746l3.357 3.357c0.206 0.206 0.54 0.206 0.746 0s0.206-0.54 0-0.746l-2.984-2.984 2.984-2.984c0.206-0.206 0.206-0.54 0-0.746s-0.54-0.206-0.746 0l-3.357 3.357zM31.67 16.373c0.206-0.206 0.206-0.54 0-0.746l-3.357-3.357c-0.206-0.206-0.54-0.206-0.746 0s-0.206 0.54 0 0.746l2.984 2.984-2.984 2.984c-0.206 0.206-0.206 0.54 0 0.746s0.54 0.206 0.746 0l3.357-3.357zM0.703 16.527h30.593v-1.055h-30.593v1.055z"></path>
</symbol>
<symbol id="icon-facebook" viewBox="0 0 32 32">
<path d="M16 0c-8.836 0-16 7.164-16 16 0 8.022 5.91 14.646 13.608 15.802v-11.562h-3.959v-4.206h3.959v-2.799c0-4.633 2.257-6.666 6.108-6.666 1.844 0 2.82 0.137 3.281 0.199v3.671h-2.626c-1.634 0-2.206 1.551-2.206 3.297v2.298h4.791l-0.649 4.206h-4.142v11.596c7.809-1.058 13.834-7.735 13.834-15.836 0-8.836-7.164-16-16-16z"></path>
</symbol>
<symbol id="icon-adress" viewBox="0 0 32 32">
<path fill="#3c3c3c" style="fill: var(--color3, #3c3c3c)" d="M32 16c0 8.837-7.163 16-16 16s-16-7.163-16-16c0-8.837 7.163-16 16-16s16 7.163 16 16z"></path>
<path fill="#fff" style="fill: var(--color1, #fff)" d="M16.077 6.154c-4.12 0-7.461 3.341-7.461 7.461s7.461 12.436 7.461 12.436 7.461-8.316 7.461-12.436c0-4.12-3.342-7.461-7.461-7.461zM16.077 18.59c-2.747 0-4.974-2.227-4.974-4.974s2.227-4.974 4.974-4.974c2.747 0 4.974 2.227 4.974 4.974s-2.227 4.974-4.974 4.974zM16.077 11.128c-1.373 0-2.487 1.114-2.487 2.487s1.114 2.487 2.487 2.487c1.373 0 2.487-1.114 2.487-2.487s-1.114-2.487-2.487-2.487z"></path>
</symbol>
<symbol id="icon-mail" viewBox="0 0 32 32">
<path fill="#3c3c3c" style="fill: var(--color3, #3c3c3c)" d="M32 16c0 8.837-7.163 16-16 16s-16-7.163-16-16c0-8.837 7.163-16 16-16s16 7.163 16 16z"></path>
<path fill="#fff" style="fill: var(--color1, #fff)" d="M25.026 20.641c0 0.4-0.113 0.771-0.293 1.098l-5.764-6.449 5.702-4.989c0.222 0.352 0.355 0.765 0.355 1.212v9.128zM15.897 16.46l7.934-6.942c-0.326-0.178-0.692-0.287-1.088-0.287h-13.692c-0.396 0-0.763 0.109-1.087 0.287l7.933 6.942zM18.109 16.040l-1.837 1.608c-0.107 0.094-0.241 0.14-0.375 0.14s-0.268-0.047-0.376-0.14l-1.837-1.608-5.837 6.532c0.35 0.22 0.76 0.351 1.203 0.351h13.692c0.443 0 0.854-0.131 1.203-0.351l-5.838-6.532zM7.125 10.301c-0.222 0.352-0.356 0.765-0.356 1.212v9.128c0 0.4 0.112 0.771 0.293 1.098l5.764-6.451-5.701-4.988z"></path>
</symbol>
<symbol id="icon-phones" viewBox="0 0 32 32">
<path d="M16 0.001c-8.836 0-16 7.164-16 16s7.164 16 16 16c8.836 0 16-7.164 16-16s-7.164-16-16-16zM24.449 23.346l-1.281 1.281c-0.229 0.228-0.898 0.371-0.92 0.371-4.053 0.035-7.955-1.557-10.822-4.424-2.875-2.877-4.469-6.793-4.426-10.859 0-0.002 0.147-0.652 0.375-0.879l1.281-1.281c0.469-0.471 1.369-0.684 2-0.473l0.269 0.090c0.629 0.211 1.289 0.906 1.463 1.547l0.644 2.365c0.174 0.643-0.061 1.557-0.529 2.025l-0.855 0.855c0.84 3.109 3.279 5.549 6.389 6.391l0.855-0.856c0.471-0.471 1.385-0.705 2.026-0.532l2.365 0.647c0.641 0.176 1.336 0.832 1.547 1.461l0.090 0.273c0.209 0.629-0.002 1.529-0.471 1.996z"></path>
</symbol>
<symbol id="icon-instagram" viewBox="0 0 32 32">
<path d="M8.889 0c-4.908 0-8.889 3.98-8.889 8.889v14.222c0 4.908 3.98 8.889 8.889 8.889h14.222c4.908 0 8.889-3.98 8.889-8.889v-14.222c0-4.908-3.98-8.889-8.889-8.889h-14.222zM26.667 3.556c0.981 0 1.778 0.796 1.778 1.778s-0.796 1.778-1.778 1.778c-0.981 0-1.778-0.796-1.778-1.778s0.797-1.778 1.778-1.778zM16 7.111c4.908 0 8.889 3.98 8.889 8.889s-3.98 8.889-8.889 8.889c-4.908 0-8.889-3.98-8.889-8.889s3.98-8.889 8.889-8.889zM16 10.667c-1.414 0-2.771 0.562-3.771 1.562s-1.562 2.357-1.562 3.771 0.562 2.771 1.562 3.771c1 1 2.357 1.562 3.771 1.562s2.771-0.562 3.771-1.562c1-1 1.562-2.357 1.562-3.771s-0.562-2.771-1.562-3.771c-1-1-2.357-1.562-3.771-1.562z"></path>
</symbol>
<symbol id="icon-menu" viewBox="0 0 32 32">
<path fill="#ef7f1a" style="fill: var(--color2, #ef7f1a)" d="M0.459 6.295h31.541v1.617h-31.541v-1.617z"></path>
<path fill="#ef7f1a" style="fill: var(--color2, #ef7f1a)" d="M0.459 15.191h31.541v1.617h-31.541v-1.617z"></path>
<path fill="#ef7f1a" style="fill: var(--color2, #ef7f1a)" d="M0.459 24.087h31.541v1.617h-31.541v-1.617z"></path>
</symbol>
</defs>
</svg>
