<svg width="215" height="80" viewBox="0 0 215 80" fill="none" xmlns="http://www.w3.org/2000/svg">
<path fill-rule="evenodd" clip-rule="evenodd" d="M197.899 40.5952C195.941 40.7448 192.555 40.7273 186.505 40.7974L82.6021 42.7317C68.7869 43.0558 52.9118 43.3278 39.5577 43.6853L15.1719 44.2503C14.4677 44.2691 -3.42264 44.5171 3.14574 45.0392C3.27873 45.0497 4.47104 45.0914 4.7114 45.0945C6.19128 45.1137 5.29337 45.0924 6.63551 45.0795L19.5468 44.9615C36.6938 44.9127 61.6386 44.4822 78.4075 44.4076L130.841 43.7955C135.377 43.72 139.18 43.707 143.762 43.6306C146.114 43.5915 147.969 43.5843 150.221 43.5577C152.578 43.5299 154.787 43.4916 157.065 43.4605C166.704 43.3294 179.979 43.0897 189.725 43.147C193.387 43.1685 196.518 43.1397 199.202 43.0672C204.125 42.934 202.627 41.8657 201.211 41.1783C200.568 40.8663 198.67 40.9012 197.899 40.5952Z" fill="#EF7F1A"/>
<path fill-rule="evenodd" clip-rule="evenodd" d="M23.5376 19.6001C23.5376 16.6587 22.417 15.4478 19.4358 15.4478C18.5947 15.4478 17.5921 15.4704 16.8122 15.5872C14.9981 15.8588 10.5188 14.1447 10.5188 19.6885L10.9646 28.0815C10.9646 28.6497 10.9021 29.8316 10.5443 30.2272L7.74122 32.6624C6.60962 33.5582 4.09898 35.9552 2.87174 37.0261L1.44362 38.2615C1.10924 38.5825 0.977539 38.5554 0.977539 39.125C1.51456 39.2489 1.4771 39.1702 2.26233 38.631L6.41726 35.7681C6.61659 35.6279 6.78167 35.537 7.00347 35.3771L10.5438 32.8771C12.5376 31.3995 13.1916 31.0568 13.3726 27.7285C13.4087 27.066 13.3556 26.3855 13.2961 25.8599C13.2324 25.2984 13.2827 24.4346 13.283 23.8408C13.2843 21.6967 12.943 21.0661 13.2163 18.8272C13.3228 17.9548 13.3883 18.0982 14.9773 18.0982C15.4791 18.0982 15.6946 18.1362 16.0634 18.1767C16.7065 18.2473 18.9519 17.7455 20.8625 18.1866C20.8711 18.5694 20.9418 18.5482 20.9546 18.9788L21.0408 21.6321C20.2093 22.1838 17.4481 24.4085 18.3226 25.3855C18.9508 26.0873 20.884 24.8985 21.2846 24.6124C21.6524 24.3495 21.9531 24.101 22.2892 23.8408C22.6194 23.5852 22.9534 23.3412 23.2908 23.0662L32.2138 16.0043C32.5636 15.7111 32.8376 15.4876 33.1884 15.203C33.8448 14.6703 34.5484 14.1674 35.3081 13.7692C35.4929 13.7484 37.2945 15.012 37.538 15.1821L39.6544 16.7957C41.5037 18.4307 46.2052 22.1969 47.8557 23.4242L67.1544 37.6106C67.4077 37.8003 69.2131 39.125 69.3711 39.125H69.6386C69.6263 38.579 69.0047 38.2026 68.3225 37.6018L64.6718 34.5044C63.4552 33.485 61.7212 31.8869 60.5056 30.9459C58.2851 29.2269 55.3791 26.5698 53.0414 24.7358C51.0018 23.1355 48.7113 21.1281 46.6839 19.5494L45.0952 18.2079C44.8782 18.0068 44.7791 17.9807 44.5585 17.7679C44.3447 17.5618 44.3313 17.5434 44.0844 17.3541C43.8531 17.1768 43.7847 17.0625 43.5745 16.8875L41.441 15.1141C40.2127 14.05 36.7653 11.2954 35.3081 11.2954C34.5265 11.2954 34.0164 11.6663 33.4959 11.9737C32.0221 12.8438 28.2121 16.163 26.4547 17.4545C26.0838 17.7269 23.8994 19.5044 23.5376 19.6001Z" fill="#EF7F1A"/>
<path fill-rule="evenodd" clip-rule="evenodd" d="M8.46777 39.3902C8.59555 39.4572 9.00965 39.6553 9.18113 39.6553C10.9598 39.6553 12.6097 38.1184 13.8433 37.2065L17.0155 34.6952C17.2876 34.4757 17.5416 34.3019 17.8077 34.0666L30.61 23.9571C31.1633 23.5133 31.661 23.1559 32.2076 22.7128L34.5281 20.7712C35.4999 19.9007 35.5912 20.2414 37.1047 21.4424L51.1445 31.6511C53.0573 32.9592 55.1863 34.5362 57.0653 35.7683L60.4363 38.0826C60.5354 38.1475 62.8946 39.9678 62.4482 38.849C62.4391 38.8264 62.3219 38.6624 62.2944 38.6331C62.1266 38.4534 62.2218 38.5696 62.0488 38.4287L60.3879 37.0704C58.256 35.1869 54.9086 32.7112 52.8053 30.8891L45.9695 25.47C45.3626 25.0178 44.8884 24.6017 44.2752 24.1448C43.9606 23.9103 43.7287 23.708 43.4348 23.4754C43.1274 23.2321 42.8308 23.013 42.5308 22.7808C41.2614 21.7983 39.4727 20.4885 38.3193 19.3557C35.2028 16.2947 33.6708 18.2037 31.4864 19.9663C27.6396 23.0702 23.4169 26.1991 19.5936 29.2983C19.0168 29.7658 18.4856 30.1764 17.9082 30.6322C17.3319 31.0871 16.8125 31.5291 16.2371 31.9804L10.3123 36.6236C9.20692 37.5073 8.57596 38.1024 8.46777 39.3902Z" fill="#EF7F1A"/>
<path fill-rule="evenodd" clip-rule="evenodd" d="M11.8564 3.9626C11.8564 6.77632 13.729 8.06263 13.729 9.52851C13.729 10.131 13.0156 9.64712 13.0156 10.9421C13.0156 11.4645 13.3026 11.9676 13.6213 12.1985C14.7147 12.9911 16.315 10.8153 16.315 9.79358C16.315 8.27609 15.9736 7.77013 15.3651 6.58226C14.3139 4.53025 13.2066 3.34003 16.1068 1.90107C18.0315 0.946066 18.5933 1.37002 18.3659 0.428686C18.2028 0.391062 18.0304 0.361678 17.8511 0.340332H16.2923C15.2252 0.451568 14.1322 0.777701 13.3529 1.29288C12.6034 1.7883 11.8564 2.76675 11.8564 3.9626Z" fill="#EF7F1A"/>
<path fill-rule="evenodd" clip-rule="evenodd" d="M17.2065 5.28798C17.2065 6.92955 19.525 8.278 19.525 8.73354C19.525 9.28292 18.4031 10.3787 18.1828 11.0257C17.9057 11.8393 19.489 12.2675 20.4167 12.2675C20.5948 12.0039 20.7677 11.7307 20.952 11.4726C21.452 10.7718 22.2001 9.95146 22.2001 8.73354C22.2001 7.80936 21.4968 6.86152 20.9152 6.47268L18.5441 5.19963C18.791 4.83439 18.7696 4.98427 18.6333 4.40454C18.1129 4.40454 17.2065 4.44176 17.2065 5.28798Z" fill="#EF7F1A"/>
<path d="M76.4639 38.7397V38.3269C76.7381 38.2798 76.9215 38.1879 77.0165 38.0468C77.1114 37.9077 77.1589 37.6254 77.1589 37.2042V34.0647C77.1589 33.6305 77.1136 33.3418 77.0208 33.1985C76.928 33.0532 76.7423 32.9676 76.4639 32.9376V32.5249H80.2261C81.0226 32.5249 81.6184 32.6297 82.0134 32.8371C82.4063 33.0467 82.6049 33.4167 82.6049 33.9471C82.6049 34.3149 82.4688 34.6314 82.1969 34.8966C81.9249 35.1618 81.5278 35.3393 81.0032 35.4312V35.4932C82.117 35.6772 82.6739 36.1883 82.6739 37.0224C82.6739 38.1665 81.8429 38.7397 80.183 38.7397H76.4639ZM78.9872 33.2071V35.1553H79.6391C80.3428 35.1553 80.6946 34.8175 80.6946 34.1417C80.6946 33.7482 80.5737 33.4809 80.3298 33.3418C80.088 33.2028 79.6412 33.1579 78.9872 33.2071ZM78.9872 35.8761V38.0446C79.1771 38.0617 79.3822 38.0682 79.6067 38.0682C80.3622 38.0682 80.7377 37.6982 80.7377 36.9539C80.7377 36.2354 80.3751 35.8761 79.6498 35.8761H78.9872ZM92.7096 37.1357L93.1974 37.7174C92.7851 38.1194 92.3858 38.4061 91.9994 38.5792C91.6131 38.7525 91.1921 38.8402 90.7367 38.8402C89.8237 38.8402 89.1243 38.5729 88.6451 38.0404C88.1637 37.5078 87.9241 36.7337 87.9241 35.72C87.9241 35.0356 88.0558 34.4432 88.3192 33.9428C88.5825 33.4445 88.9602 33.066 89.4546 32.8093C89.9466 32.5527 90.5122 32.4244 91.1489 32.4244C91.49 32.4244 91.831 32.4479 92.1699 32.497C92.5088 32.5441 92.8174 32.6104 93.0959 32.6939V34.2037H91.844C91.7814 33.8102 91.6864 33.5237 91.5591 33.3461C91.4338 33.1664 91.2526 33.0767 91.0151 33.0767C90.8598 33.0767 90.7108 33.1152 90.5704 33.1921C90.428 33.2691 90.3049 33.4017 90.197 33.592C90.0891 33.7824 90.0028 34.0369 89.9402 34.3576C89.8776 34.6763 89.8452 35.0805 89.8452 35.5703C89.8452 36.0578 89.8927 36.4706 89.9855 36.8064C90.0783 37.1421 90.2273 37.4031 90.4345 37.5826C90.6395 37.7645 90.9115 37.8564 91.2504 37.8564C91.4943 37.8564 91.7253 37.805 91.9411 37.7003C92.1592 37.5955 92.4159 37.4073 92.7096 37.1357ZM103.747 37.5998C103.317 38.051 102.892 38.3697 102.471 38.5579C102.048 38.746 101.564 38.8402 101.016 38.8402C100.034 38.8402 99.2937 38.5729 98.7994 38.0404C98.303 37.5078 98.0569 36.7186 98.0569 35.6686C98.0569 34.9928 98.1843 34.409 98.439 33.9192C98.6937 33.4274 99.0563 33.0553 99.5225 32.8029C99.991 32.5506 100.535 32.4244 101.154 32.4244C101.539 32.4244 101.875 32.4671 102.162 32.5549C102.452 32.6425 102.7 32.7645 102.907 32.9227C103.112 33.0788 103.285 33.267 103.419 33.4894C103.578 33.7525 103.699 34.054 103.779 34.3918C103.863 34.7383 103.909 35.1575 103.911 35.6515H99.9024C99.9067 36.4065 100.043 36.9625 100.31 37.3196C100.578 37.6768 100.986 37.8564 101.534 37.8564C101.854 37.8564 102.143 37.7965 102.4 37.6768C102.657 37.5591 102.935 37.3496 103.235 37.048L103.747 37.5998ZM102.039 34.9736C102.022 34.3341 101.938 33.8594 101.787 33.545C101.636 33.2327 101.392 33.0767 101.053 33.0767C100.729 33.0767 100.47 33.2392 100.278 33.5642C100.088 33.8894 99.9715 34.3598 99.9348 34.9736H102.039ZM113.702 38.7397C113.478 38.7397 113.299 38.7888 113.165 38.8872C113.029 38.9856 112.889 39.2059 112.744 39.548C112.599 39.8902 112.479 40.2966 112.386 40.7628H111.628V37.9569H112.438C112.85 37.3175 113.2 36.5647 113.487 35.7007C113.774 34.8367 113.916 34.1417 113.916 33.6135C113.916 33.3761 113.875 33.2092 113.791 33.1109C113.707 33.0125 113.547 32.9548 113.31 32.9376V32.5249H118.402V32.9376C117.946 32.9804 117.717 33.2863 117.717 33.8594V37.9569H118.736V40.7628H117.97C117.866 40.2324 117.743 39.8068 117.607 39.4817C117.469 39.1588 117.34 38.9535 117.219 38.868C117.096 38.7824 116.893 38.7397 116.61 38.7397H113.702ZM115.889 37.9569V33.2456H114.814C114.65 34.9522 114.192 36.524 113.443 37.9569H115.889ZM127.451 38.7397V38.3269C127.686 38.3098 127.861 38.2285 127.973 38.081C128.083 37.9356 128.139 37.6405 128.139 37.1977V33.2456H126.907C126.769 34.6229 126.555 35.7627 126.268 36.6652C125.981 37.5677 125.674 38.158 125.344 38.4317C125.016 38.7076 124.627 38.8466 124.181 38.8466C123.906 38.8466 123.628 38.8039 123.347 38.7204V37.279H124.105C124.131 37.6426 124.267 37.8243 124.517 37.8243C124.876 37.8243 125.197 37.2875 125.484 36.214C125.771 35.1404 125.914 34.3341 125.914 33.7952C125.914 33.4701 125.858 33.252 125.743 33.1408C125.629 33.0317 125.484 32.9633 125.307 32.9376V32.5185H130.645V32.9376C130.376 32.9761 130.194 33.0702 130.104 33.2199C130.013 33.3696 129.968 33.6477 129.968 34.054V37.1977C129.968 37.6405 130.017 37.9291 130.119 38.0639C130.22 38.1965 130.395 38.2841 130.645 38.3269V38.7397H127.451ZM139.351 36.1456C139.12 36.1456 138.93 36.2119 138.779 36.3465C138.63 36.4792 138.481 36.6823 138.335 36.9539L137.575 38.4509V38.7397H135.412V38.3269C135.598 38.2798 135.736 38.2071 135.826 38.111C135.917 38.0125 136.032 37.8414 136.172 37.5998L136.55 36.8598C136.757 36.4556 137.083 36.1626 137.525 35.983V35.9274C136.545 35.6751 136.057 35.1575 136.057 34.3726C136.057 33.1408 136.91 32.5249 138.62 32.5249H142.166V32.9376C141.922 32.9761 141.749 33.0617 141.648 33.1985C141.546 33.3333 141.495 33.6583 141.495 34.1716V37.1549C141.495 37.5506 141.531 37.8308 141.603 37.9911C141.674 38.1516 141.864 38.2628 142.172 38.3269V38.7397H139.03V38.3269C139.287 38.2927 139.457 38.2071 139.541 38.0682C139.625 37.9313 139.669 37.5955 139.669 37.0608V36.1456H139.351ZM139.669 35.5253V33.1878C138.956 33.1302 138.471 33.1921 138.214 33.3761C137.957 33.5599 137.827 33.8765 137.827 34.3234C137.827 34.7405 137.933 35.0442 138.14 35.2366C138.35 35.4291 138.689 35.5253 139.157 35.5253H139.669ZM150.11 38.7397V38.3269C150.384 38.2798 150.568 38.1879 150.663 38.0468C150.758 37.9077 150.805 37.6254 150.805 37.2042V34.0647C150.805 33.6305 150.76 33.3418 150.667 33.1985C150.574 33.0532 150.388 32.9676 150.11 32.9376V32.5249H153.872C154.669 32.5249 155.265 32.6297 155.66 32.8371C156.052 33.0467 156.251 33.4167 156.251 33.9471C156.251 34.3149 156.115 34.6314 155.843 34.8966C155.571 35.1618 155.174 35.3393 154.649 35.4312V35.4932C155.763 35.6772 156.32 36.1883 156.32 37.0224C156.32 38.1665 155.489 38.7397 153.829 38.7397H150.11ZM152.633 33.2071V35.1553H153.285C153.989 35.1553 154.341 34.8175 154.341 34.1417C154.341 33.7482 154.22 33.4809 153.976 33.3418C153.734 33.2028 153.287 33.1579 152.633 33.2071ZM152.633 35.8761V38.0446C152.823 38.0617 153.028 38.0682 153.253 38.0682C154.008 38.0682 154.384 37.6982 154.384 36.9539C154.384 36.2354 154.021 35.8761 153.296 35.8761H152.633ZM163.934 30.0249V31.5604H162.203V30.0249H163.934ZM161.531 38.3269C161.739 38.2713 161.881 38.2007 161.959 38.1131C162.037 38.0254 162.088 37.9056 162.116 37.7559C162.144 37.6062 162.157 37.3325 162.157 36.9347V34.0219C162.157 33.8166 162.149 33.652 162.129 33.5258C162.11 33.4017 162.075 33.3012 162.021 33.2263C161.97 33.1515 161.898 33.0938 161.808 33.0532C161.717 33.0146 161.598 32.9804 161.456 32.9505V32.5249L163.196 32.4736H163.986V36.9283C163.986 37.1635 163.988 37.3432 163.994 37.4715C164.001 37.5977 164.009 37.696 164.022 37.7645C164.035 37.835 164.055 37.8949 164.076 37.9505C164.1 38.004 164.13 38.0553 164.169 38.1002C164.206 38.1473 164.262 38.1879 164.333 38.2264C164.404 38.2628 164.499 38.297 164.618 38.3269V38.7397H161.531V38.3269ZM170.341 34.0219C170.341 33.637 170.296 33.3718 170.203 33.2263C170.11 33.0788 169.931 32.9847 169.665 32.9376V32.5249H172.776V32.9376C172.554 32.9761 172.396 33.066 172.305 33.2114C172.215 33.3547 172.169 33.6241 172.169 34.0219V35.2366H172.29C172.653 35.2366 172.949 35.1489 173.182 34.9715C173.413 34.7939 173.626 34.4732 173.821 34.0091C174.123 33.2863 174.414 32.8414 174.693 32.6746C174.971 32.5078 175.336 32.4244 175.787 32.4244C176.005 32.4244 176.236 32.4501 176.476 32.4992V33.8829H175.711C175.638 33.6583 175.502 33.545 175.299 33.545C175.055 33.545 174.839 33.7568 174.654 34.178C174.427 34.6955 174.144 35.0571 173.808 35.2623V35.3115C174.49 35.4676 175.021 35.9039 175.401 36.6225L175.729 37.2362C175.97 37.6874 176.158 37.9783 176.292 38.1067C176.428 38.2371 176.575 38.3076 176.735 38.3205V38.7397H174.2V38.3889L173.434 36.7722C173.257 36.4 173.091 36.1562 172.938 36.0386C172.784 35.9231 172.575 35.8632 172.31 35.8632H172.169V36.9283C172.169 37.4672 172.206 37.8179 172.277 37.9783C172.348 38.1387 172.523 38.2542 172.802 38.3269V38.7397H169.702V38.3269C169.976 38.2585 170.145 38.1558 170.205 38.0125C170.268 37.8714 170.313 37.5099 170.341 36.9283V34.0219ZM184.299 38.8402C183.679 38.8402 183.144 38.7333 182.695 38.5172C182.246 38.3013 181.896 37.9569 181.642 37.4843C181.389 37.0096 181.264 36.4065 181.264 35.6751C181.264 35.1168 181.341 34.6314 181.497 34.223C181.652 33.8123 181.87 33.4744 182.149 33.2071C182.427 32.9398 182.758 32.743 183.144 32.6147C183.53 32.4886 183.949 32.4244 184.4 32.4244C185.419 32.4244 186.19 32.6896 186.708 33.2221C187.226 33.7546 187.485 34.5352 187.485 35.5638C187.485 36.2888 187.357 36.8983 187.1 37.3902C186.844 37.8799 186.477 38.2456 186 38.483C185.523 38.7204 184.957 38.8402 184.299 38.8402ZM183.185 35.5382C183.185 36.4235 183.286 37.0865 183.485 37.5271C183.686 37.9676 183.988 38.1879 184.394 38.1879C184.616 38.1879 184.804 38.1323 184.953 38.0189C185.102 37.9056 185.223 37.7431 185.313 37.5314C185.404 37.3175 185.469 37.0608 185.505 36.7636C185.544 36.4642 185.564 36.1284 185.564 35.7563C185.564 34.8602 185.462 34.1888 185.264 33.7439C185.063 33.299 184.767 33.0767 184.374 33.0767C184.087 33.0767 183.858 33.1664 183.686 33.3461C183.513 33.5237 183.386 33.7931 183.306 34.1524C183.226 34.5117 183.185 34.9736 183.185 35.5382ZM199.072 37.2427C199.072 37.6297 199.12 37.8992 199.215 38.0468C199.307 38.1965 199.489 38.2884 199.754 38.3269V38.7397H196.637V38.3269C196.89 38.2884 197.054 38.1922 197.13 38.0339C197.205 37.8778 197.244 37.6147 197.244 37.2427V35.9445H195.163V37.2427C195.163 37.6639 195.208 37.942 195.297 38.0746C195.385 38.2092 195.545 38.2927 195.776 38.3269V38.7397H192.659V38.3269C192.921 38.2884 193.1 38.1965 193.192 38.051C193.287 37.9035 193.335 37.634 193.335 37.2427V34.0219C193.335 33.5707 193.281 33.2863 193.175 33.1707C193.067 33.0532 192.895 32.9761 192.659 32.9376V32.5249H195.77V32.9376C195.526 32.9718 195.364 33.0596 195.284 33.2007C195.204 33.344 195.163 33.6156 195.163 34.0219V35.1361H197.244V34.0219C197.244 33.5664 197.196 33.2777 197.101 33.1579C197.007 33.036 196.849 32.9633 196.631 32.9376V32.5249H199.754V32.9376C199.489 32.9761 199.307 33.0702 199.215 33.2221C199.12 33.3761 199.072 33.6412 199.072 34.0219V37.2427Z" fill="white"/>
<path d="M1.76172 50.4219H28.9436V57.5048H19.8156V79.0737H10.8897V57.5048H1.76172V50.4219ZM33.07 50.4219H46.3512C48.963 50.4219 51.0834 50.7753 52.6923 51.4756C54.3011 52.1826 55.6339 53.1897 56.6908 54.5035C57.7409 55.8241 58.5016 57.3514 58.9728 59.0987C59.4507 60.8461 59.6863 62.6936 59.6863 64.6477C59.6863 67.709 59.3363 70.0833 58.6295 71.7707C57.9294 73.458 56.9533 74.872 55.7013 76.0124C54.4492 77.1529 53.1096 77.9132 51.6758 78.2934C49.7169 78.8136 47.9399 79.0737 46.3512 79.0737H33.07V50.4219ZM41.9959 56.9046V72.551H44.1904C46.0617 72.551 47.3946 72.3443 48.189 71.9374C48.9765 71.524 49.5959 70.8103 50.0468 69.7899C50.4978 68.7628 50.72 67.1088 50.72 64.8145C50.72 61.7799 50.2218 59.7057 49.2188 58.5852C48.2159 57.4648 46.5532 56.9046 44.2308 56.9046H41.9959ZM77.8344 50.4219H101.745V56.5444H86.8008V61.1062H100.654V66.9487H86.8008V72.591H102.189V79.0737H77.8344V50.4219ZM104.175 50.4219H113.511L120.027 71.0437L126.449 50.4219H135.517L124.78 79.0737H115.1L104.175 50.4219ZM138.781 50.4219H147.748V79.0737H138.781V50.4219ZM154.257 79.0737V50.4219H169.147C171.907 50.4219 174.021 50.6553 175.475 51.1288C176.936 51.5956 178.114 52.4693 179.009 53.7365C179.904 55.0104 180.348 56.5644 180.348 58.3918C180.348 59.9791 180.005 61.353 179.319 62.5069C178.639 63.6673 177.696 64.6011 176.491 65.3213C175.731 65.7749 174.68 66.155 173.354 66.4552C174.418 66.8087 175.192 67.1554 175.677 67.5089C176 67.7423 176.478 68.2492 177.104 69.0162C177.723 69.7832 178.141 70.3768 178.349 70.7969L182.691 79.0737H172.594L167.821 70.3368C167.215 69.2029 166.677 68.4693 166.206 68.1292C165.559 67.689 164.826 67.4689 164.011 67.4689H163.224V79.0737H154.257ZM163.224 62.0667H167C167.404 62.0667 168.198 61.9333 169.369 61.6732C169.962 61.5598 170.446 61.2597 170.817 60.7728C171.194 60.2859 171.382 59.7324 171.382 59.1055C171.382 58.1784 171.086 57.4648 170.494 56.9713C169.901 56.471 168.79 56.2242 167.155 56.2242H163.224V62.0667ZM203.343 74.3517H193.219L191.765 79.0737H182.644L193.529 50.4219H203.31L214.147 79.0737H204.79L203.343 74.3517ZM201.452 68.1492L198.295 57.8516L195.124 68.1492H201.452Z" fill="#EF7F1A"/>
</svg>
