<svg width="444" height="376" viewBox="0 0 444 376" fill="none" xmlns="http://www.w3.org/2000/svg">
<mask id="mask0_108_771" style="mask-type:alpha" maskUnits="userSpaceOnUse" x="0" y="0" width="444" height="674">
<rect x="444" width="674" height="444" rx="222" transform="rotate(90 444 0)" fill="white"/>
</mask>
<g mask="url(#mask0_108_771)">
<rect x="247.18" y="311.75" width="12.0833" height="6.80093" rx="3.40046" transform="rotate(90 247.18 311.75)" stroke="white" stroke-opacity="0.1" stroke-width="1.5"/>
<rect x="392.291" y="311.75" width="12.0833" height="6.80093" rx="3.40046" transform="rotate(90 392.291 311.75)" stroke="white" stroke-opacity="0.1" stroke-width="1.5"/>
<rect x="102.291" y="311.75" width="12.0833" height="6.80093" rx="3.40046" transform="rotate(90 102.291 311.75)" stroke="white" stroke-opacity="0.1" stroke-width="1.5"/>
<rect x="247.18" y="138.315" width="12.0833" height="6.80093" rx="3.40046" transform="rotate(90 247.18 138.315)" stroke="white" stroke-opacity="0.1" stroke-width="1.5"/>
<rect x="102.291" y="138.315" width="12.0833" height="6.80093" rx="3.40046" transform="rotate(90 102.291 138.315)" stroke="white" stroke-opacity="0.1" stroke-width="1.5"/>
<rect x="392.291" y="138.315" width="12.0833" height="6.80093" rx="3.40046" transform="rotate(90 392.291 138.315)" stroke="white" stroke-opacity="0.1" stroke-width="1.5"/>
<rect x="319.846" y="311.75" width="12.0833" height="6.80093" rx="3.40046" transform="rotate(90 319.846 311.75)" stroke="white" stroke-opacity="0.1" stroke-width="1.5"/>
<rect x="174.734" y="311.75" width="12.0833" height="6.80093" rx="3.40046" transform="rotate(90 174.734 311.75)" stroke="white" stroke-opacity="0.1" stroke-width="1.5"/>
<rect x="29.8457" y="311.75" width="12.0833" height="6.80093" rx="3.40046" transform="rotate(90 29.8457 311.75)" stroke="white" stroke-opacity="0.1" stroke-width="1.5"/>
<rect x="174.734" y="138.315" width="12.0833" height="6.80093" rx="3.40046" transform="rotate(90 174.734 138.315)" stroke="white" stroke-opacity="0.1" stroke-width="1.5"/>
<rect x="368.143" y="311.75" width="12.0833" height="6.80093" rx="3.40046" transform="rotate(90 368.143 311.75)" stroke="white" stroke-opacity="0.1" stroke-width="1.5"/>
<rect x="29.8457" y="138.315" width="12.0833" height="6.80093" rx="3.40046" transform="rotate(90 29.8457 138.315)" stroke="white" stroke-opacity="0.1" stroke-width="1.5"/>
<rect x="319.846" y="138.315" width="12.0833" height="6.80093" rx="3.40046" transform="rotate(90 319.846 138.315)" stroke="white" stroke-opacity="0.1" stroke-width="1.5"/>
<rect x="223.031" y="311.75" width="12.0833" height="6.80093" rx="3.40046" transform="rotate(90 223.031 311.75)" stroke="white" stroke-opacity="0.1" stroke-width="1.5"/>
<rect x="440.588" y="311.75" width="12.0833" height="6.80093" rx="3.40046" transform="rotate(90 440.588 311.75)" stroke="white" stroke-opacity="0.1" stroke-width="1.5"/>
<rect x="295.697" y="311.75" width="12.0833" height="6.80093" rx="3.40046" transform="rotate(90 295.697 311.75)" stroke="white" stroke-opacity="0.1" stroke-width="1.5"/>
<rect x="78.1426" y="311.75" width="12.0833" height="6.80093" rx="3.40046" transform="rotate(90 78.1426 311.75)" stroke="white" stroke-opacity="0.1" stroke-width="1.5"/>
<rect x="223.031" y="138.315" width="12.0833" height="6.80093" rx="3.40046" transform="rotate(90 223.031 138.315)" stroke="white" stroke-opacity="0.1" stroke-width="1.5"/>
<rect x="78.1426" y="138.315" width="12.0833" height="6.80093" rx="3.40046" transform="rotate(90 78.1426 138.315)" stroke="white" stroke-opacity="0.1" stroke-width="1.5"/>
<rect x="368.143" y="138.315" width="12.0833" height="6.80093" rx="3.40046" transform="rotate(90 368.143 138.315)" stroke="white" stroke-opacity="0.1" stroke-width="1.5"/>
<rect x="343.994" y="311.75" width="12.0833" height="6.80093" rx="3.40046" transform="rotate(90 343.994 311.75)" stroke="white" stroke-opacity="0.1" stroke-width="1.5"/>
<rect x="150.588" y="311.75" width="12.0833" height="6.80093" rx="3.40046" transform="rotate(90 150.588 311.75)" stroke="white" stroke-opacity="0.1" stroke-width="1.5"/>
<rect x="5.69727" y="311.75" width="12.0833" height="6.80093" rx="3.40046" transform="rotate(90 5.69727 311.75)" stroke="white" stroke-opacity="0.1" stroke-width="1.5"/>
<rect x="416.439" y="311.75" width="12.0833" height="6.80093" rx="3.40046" transform="rotate(90 416.439 311.75)" stroke="white" stroke-opacity="0.1" stroke-width="1.5"/>
<rect x="150.588" y="138.315" width="12.0833" height="6.80093" rx="3.40046" transform="rotate(90 150.588 138.315)" stroke="white" stroke-opacity="0.1" stroke-width="1.5"/>
<rect x="271.551" y="311.75" width="12.0833" height="6.80093" rx="3.40046" transform="rotate(90 271.551 311.75)" stroke="white" stroke-opacity="0.1" stroke-width="1.5"/>
<rect x="440.588" y="138.315" width="12.0833" height="6.80093" rx="3.40046" transform="rotate(90 440.588 138.315)" stroke="white" stroke-opacity="0.1" stroke-width="1.5"/>
<rect x="5.69727" y="138.315" width="12.0833" height="6.80093" rx="3.40046" transform="rotate(90 5.69727 138.315)" stroke="white" stroke-opacity="0.1" stroke-width="1.5"/>
<rect x="295.697" y="138.315" width="12.0833" height="6.80093" rx="3.40046" transform="rotate(90 295.697 138.315)" stroke="white" stroke-opacity="0.1" stroke-width="1.5"/>
<rect x="198.883" y="311.75" width="12.0833" height="6.80093" rx="3.40046" transform="rotate(90 198.883 311.75)" stroke="white" stroke-opacity="0.1" stroke-width="1.5"/>
<rect x="368.143" y="346.463" width="12.0833" height="6.80093" rx="3.40046" transform="rotate(90 368.143 346.463)" stroke="white" stroke-opacity="0.1" stroke-width="1.5"/>
<rect x="53.9941" y="311.75" width="12.0833" height="6.80093" rx="3.40046" transform="rotate(90 53.9941 311.75)" stroke="white" stroke-opacity="0.1" stroke-width="1.5"/>
<rect x="198.883" y="138.315" width="12.0833" height="6.80093" rx="3.40046" transform="rotate(90 198.883 138.315)" stroke="white" stroke-opacity="0.1" stroke-width="1.5"/>
<rect x="53.9941" y="138.315" width="12.0833" height="6.80093" rx="3.40046" transform="rotate(90 53.9941 138.315)" stroke="white" stroke-opacity="0.1" stroke-width="1.5"/>
<rect x="440.588" y="346.463" width="12.0833" height="6.80093" rx="3.40046" transform="rotate(90 440.588 346.463)" stroke="white" stroke-opacity="0.1" stroke-width="1.5"/>
<rect x="343.994" y="138.315" width="12.0833" height="6.80093" rx="3.40046" transform="rotate(90 343.994 138.315)" stroke="white" stroke-opacity="0.1" stroke-width="1.5"/>
<rect x="295.697" y="346.463" width="12.0833" height="6.80093" rx="3.40046" transform="rotate(90 295.697 346.463)" stroke="white" stroke-opacity="0.1" stroke-width="1.5"/>
<rect x="126.439" y="311.75" width="12.0833" height="6.80093" rx="3.40046" transform="rotate(90 126.439 311.75)" stroke="white" stroke-opacity="0.1" stroke-width="1.5"/>
<rect x="126.439" y="138.315" width="12.0833" height="6.80093" rx="3.40046" transform="rotate(90 126.439 138.315)" stroke="white" stroke-opacity="0.1" stroke-width="1.5"/>
<rect x="343.994" y="346.463" width="12.0833" height="6.80093" rx="3.40046" transform="rotate(90 343.994 346.463)" stroke="white" stroke-opacity="0.1" stroke-width="1.5"/>
<rect x="416.439" y="138.315" width="12.0833" height="6.80093" rx="3.40046" transform="rotate(90 416.439 138.315)" stroke="white" stroke-opacity="0.1" stroke-width="1.5"/>
<rect x="271.551" y="138.315" width="12.0833" height="6.80093" rx="3.40046" transform="rotate(90 271.551 138.315)" stroke="white" stroke-opacity="0.1" stroke-width="1.5"/>
<rect x="223.031" y="-0.536865" width="12.0833" height="6.80093" rx="3.40046" transform="rotate(90 223.031 -0.536865)" stroke="white" stroke-opacity="0.1" stroke-width="1.5"/>
<rect x="223.031" y="346.463" width="12.0833" height="6.80093" rx="3.40046" transform="rotate(90 223.031 346.463)" stroke="white" stroke-opacity="0.1" stroke-width="1.5"/>
<rect x="416.439" y="346.463" width="12.0833" height="6.80093" rx="3.40046" transform="rotate(90 416.439 346.463)" stroke="white" stroke-opacity="0.1" stroke-width="1.5"/>
<rect x="78.1426" y="-0.537109" width="12.0833" height="6.80093" rx="3.40046" transform="rotate(90 78.1426 -0.537109)" stroke="white" stroke-opacity="0.1" stroke-width="1.5"/>
<rect x="271.551" y="346.463" width="12.0833" height="6.80093" rx="3.40046" transform="rotate(90 271.551 346.463)" stroke="white" stroke-opacity="0.1" stroke-width="1.5"/>
<rect x="78.1426" y="346.463" width="12.0833" height="6.80093" rx="3.40046" transform="rotate(90 78.1426 346.463)" stroke="white" stroke-opacity="0.1" stroke-width="1.5"/>
<rect x="368.143" y="-0.537109" width="12.0833" height="6.80093" rx="3.40046" transform="rotate(90 368.143 -0.537109)" stroke="white" stroke-opacity="0.1" stroke-width="1.5"/>
<rect x="223.031" y="173.028" width="12.0833" height="6.80093" rx="3.40046" transform="rotate(90 223.031 173.028)" stroke="white" stroke-opacity="0.1" stroke-width="1.5"/>
<rect x="78.1426" y="173.028" width="12.0833" height="6.80093" rx="3.40046" transform="rotate(90 78.1426 173.028)" stroke="white" stroke-opacity="0.1" stroke-width="1.5"/>
<rect x="368.143" y="173.028" width="12.0833" height="6.80093" rx="3.40046" transform="rotate(90 368.143 173.028)" stroke="white" stroke-opacity="0.1" stroke-width="1.5"/>
<rect x="392.291" y="346.463" width="12.0833" height="6.80093" rx="3.40046" transform="rotate(90 392.291 346.463)" stroke="white" stroke-opacity="0.1" stroke-width="1.5"/>
<rect x="150.588" y="-0.537109" width="12.0833" height="6.80093" rx="3.40046" transform="rotate(90 150.588 -0.537109)" stroke="white" stroke-opacity="0.1" stroke-width="1.5"/>
<rect x="150.588" y="346.463" width="12.0833" height="6.80093" rx="3.40046" transform="rotate(90 150.588 346.463)" stroke="white" stroke-opacity="0.1" stroke-width="1.5"/>
<rect x="440.588" y="-0.537109" width="12.0833" height="6.80093" rx="3.40046" transform="rotate(90 440.588 -0.537109)" stroke="white" stroke-opacity="0.1" stroke-width="1.5"/>
<rect x="5.69727" y="-0.537109" width="12.0833" height="6.80093" rx="3.40046" transform="rotate(90 5.69727 -0.537109)" stroke="white" stroke-opacity="0.1" stroke-width="1.5"/>
<rect x="5.69727" y="346.463" width="12.0833" height="6.80093" rx="3.40046" transform="rotate(90 5.69727 346.463)" stroke="white" stroke-opacity="0.1" stroke-width="1.5"/>
<rect x="295.697" y="-0.537109" width="12.0833" height="6.80093" rx="3.40046" transform="rotate(90 295.697 -0.537109)" stroke="white" stroke-opacity="0.1" stroke-width="1.5"/>
<rect x="150.588" y="173.028" width="12.0833" height="6.80093" rx="3.40046" transform="rotate(90 150.588 173.028)" stroke="white" stroke-opacity="0.1" stroke-width="1.5"/>
<rect x="319.846" y="346.463" width="12.0833" height="6.80093" rx="3.40046" transform="rotate(90 319.846 346.463)" stroke="white" stroke-opacity="0.1" stroke-width="1.5"/>
<rect x="440.588" y="173.028" width="12.0833" height="6.80093" rx="3.40046" transform="rotate(90 440.588 173.028)" stroke="white" stroke-opacity="0.1" stroke-width="1.5"/>
<rect x="5.69727" y="173.028" width="12.0833" height="6.80093" rx="3.40046" transform="rotate(90 5.69727 173.028)" stroke="white" stroke-opacity="0.1" stroke-width="1.5"/>
<rect x="295.697" y="173.028" width="12.0833" height="6.80093" rx="3.40046" transform="rotate(90 295.697 173.028)" stroke="white" stroke-opacity="0.1" stroke-width="1.5"/>
<rect x="198.883" y="-0.536865" width="12.0833" height="6.80093" rx="3.40046" transform="rotate(90 198.883 -0.536865)" stroke="white" stroke-opacity="0.1" stroke-width="1.5"/>
<rect x="198.883" y="346.463" width="12.0833" height="6.80093" rx="3.40046" transform="rotate(90 198.883 346.463)" stroke="white" stroke-opacity="0.1" stroke-width="1.5"/>
<rect x="53.9941" y="-0.537109" width="12.0833" height="6.80093" rx="3.40046" transform="rotate(90 53.9941 -0.537109)" stroke="white" stroke-opacity="0.1" stroke-width="1.5"/>
<rect x="53.9941" y="346.463" width="12.0833" height="6.80093" rx="3.40046" transform="rotate(90 53.9941 346.463)" stroke="white" stroke-opacity="0.1" stroke-width="1.5"/>
<rect x="343.994" y="-0.537109" width="12.0833" height="6.80093" rx="3.40046" transform="rotate(90 343.994 -0.537109)" stroke="white" stroke-opacity="0.1" stroke-width="1.5"/>
<rect x="198.883" y="173.028" width="12.0833" height="6.80093" rx="3.40046" transform="rotate(90 198.883 173.028)" stroke="white" stroke-opacity="0.1" stroke-width="1.5"/>
<rect x="53.9941" y="173.028" width="12.0833" height="6.80093" rx="3.40046" transform="rotate(90 53.9941 173.028)" stroke="white" stroke-opacity="0.1" stroke-width="1.5"/>
<rect x="343.994" y="173.028" width="12.0833" height="6.80093" rx="3.40046" transform="rotate(90 343.994 173.028)" stroke="white" stroke-opacity="0.1" stroke-width="1.5"/>
<rect x="126.439" y="-0.537109" width="12.0833" height="6.80093" rx="3.40046" transform="rotate(90 126.439 -0.537109)" stroke="white" stroke-opacity="0.1" stroke-width="1.5"/>
<rect x="126.439" y="346.463" width="12.0833" height="6.80093" rx="3.40046" transform="rotate(90 126.439 346.463)" stroke="white" stroke-opacity="0.1" stroke-width="1.5"/>
<rect x="416.439" y="-0.537109" width="12.0833" height="6.80093" rx="3.40046" transform="rotate(90 416.439 -0.537109)" stroke="white" stroke-opacity="0.1" stroke-width="1.5"/>
<rect x="271.551" y="-0.537109" width="12.0833" height="6.80093" rx="3.40046" transform="rotate(90 271.551 -0.537109)" stroke="white" stroke-opacity="0.1" stroke-width="1.5"/>
<rect x="126.439" y="173.028" width="12.0833" height="6.80093" rx="3.40046" transform="rotate(90 126.439 173.028)" stroke="white" stroke-opacity="0.1" stroke-width="1.5"/>
<rect x="416.439" y="173.028" width="12.0833" height="6.80093" rx="3.40046" transform="rotate(90 416.439 173.028)" stroke="white" stroke-opacity="0.1" stroke-width="1.5"/>
<rect x="271.551" y="173.028" width="12.0833" height="6.80093" rx="3.40046" transform="rotate(90 271.551 173.028)" stroke="white" stroke-opacity="0.1" stroke-width="1.5"/>
<rect x="247.18" y="-0.536865" width="12.0833" height="6.80093" rx="3.40046" transform="rotate(90 247.18 -0.536865)" stroke="white" stroke-opacity="0.1" stroke-width="1.5"/>
<rect x="247.18" y="346.463" width="12.0833" height="6.80093" rx="3.40046" transform="rotate(90 247.18 346.463)" stroke="white" stroke-opacity="0.1" stroke-width="1.5"/>
<rect x="102.291" y="-0.537109" width="12.0833" height="6.80093" rx="3.40046" transform="rotate(90 102.291 -0.537109)" stroke="white" stroke-opacity="0.1" stroke-width="1.5"/>
<rect x="102.291" y="346.463" width="12.0833" height="6.80093" rx="3.40046" transform="rotate(90 102.291 346.463)" stroke="white" stroke-opacity="0.1" stroke-width="1.5"/>
<rect x="392.291" y="-0.537109" width="12.0833" height="6.80093" rx="3.40046" transform="rotate(90 392.291 -0.537109)" stroke="white" stroke-opacity="0.1" stroke-width="1.5"/>
<rect x="247.18" y="173.028" width="12.0833" height="6.80093" rx="3.40046" transform="rotate(90 247.18 173.028)" stroke="white" stroke-opacity="0.1" stroke-width="1.5"/>
<rect x="102.291" y="173.028" width="12.0833" height="6.80093" rx="3.40046" transform="rotate(90 102.291 173.028)" stroke="white" stroke-opacity="0.1" stroke-width="1.5"/>
<rect x="392.291" y="173.028" width="12.0833" height="6.80093" rx="3.40046" transform="rotate(90 392.291 173.028)" stroke="white" stroke-opacity="0.1" stroke-width="1.5"/>
<rect x="174.734" y="-0.537109" width="12.0833" height="6.80093" rx="3.40046" transform="rotate(90 174.734 -0.537109)" stroke="white" stroke-opacity="0.1" stroke-width="1.5"/>
<rect x="174.734" y="346.463" width="12.0833" height="6.80093" rx="3.40046" transform="rotate(90 174.734 346.463)" stroke="white" stroke-opacity="0.1" stroke-width="1.5"/>
<rect x="29.8457" y="-0.537109" width="12.0833" height="6.80093" rx="3.40046" transform="rotate(90 29.8457 -0.537109)" stroke="white" stroke-opacity="0.1" stroke-width="1.5"/>
<rect x="29.8457" y="346.463" width="12.0833" height="6.80093" rx="3.40046" transform="rotate(90 29.8457 346.463)" stroke="white" stroke-opacity="0.1" stroke-width="1.5"/>
<rect x="319.846" y="-0.537109" width="12.0833" height="6.80093" rx="3.40046" transform="rotate(90 319.846 -0.537109)" stroke="white" stroke-opacity="0.1" stroke-width="1.5"/>
<rect x="174.734" y="173.028" width="12.0833" height="6.80093" rx="3.40046" transform="rotate(90 174.734 173.028)" stroke="white" stroke-opacity="0.1" stroke-width="1.5"/>
<rect x="29.8457" y="173.028" width="12.0833" height="6.80093" rx="3.40046" transform="rotate(90 29.8457 173.028)" stroke="white" stroke-opacity="0.1" stroke-width="1.5"/>
<rect x="319.846" y="173.028" width="12.0833" height="6.80093" rx="3.40046" transform="rotate(90 319.846 173.028)" stroke="white" stroke-opacity="0.1" stroke-width="1.5"/>
<rect x="223.031" y="68.8889" width="12.0833" height="6.80093" rx="3.40046" transform="rotate(90 223.031 68.8889)" stroke="white" stroke-opacity="0.1" stroke-width="1.5"/>
<rect x="78.1426" y="68.8889" width="12.0833" height="6.80093" rx="3.40046" transform="rotate(90 78.1426 68.8889)" stroke="white" stroke-opacity="0.1" stroke-width="1.5"/>
<rect x="368.143" y="68.8889" width="12.0833" height="6.80093" rx="3.40046" transform="rotate(90 368.143 68.8889)" stroke="white" stroke-opacity="0.1" stroke-width="1.5"/>
<rect x="223.031" y="242.454" width="12.0833" height="6.80093" rx="3.40046" transform="rotate(90 223.031 242.454)" stroke="white" stroke-opacity="0.1" stroke-width="1.5"/>
<rect x="78.1426" y="242.454" width="12.0833" height="6.80093" rx="3.40046" transform="rotate(90 78.1426 242.454)" stroke="white" stroke-opacity="0.1" stroke-width="1.5"/>
<rect x="368.143" y="242.454" width="12.0833" height="6.80093" rx="3.40046" transform="rotate(90 368.143 242.454)" stroke="white" stroke-opacity="0.1" stroke-width="1.5"/>
<rect x="150.588" y="68.8889" width="12.0833" height="6.80093" rx="3.40046" transform="rotate(90 150.588 68.8889)" stroke="white" stroke-opacity="0.1" stroke-width="1.5"/>
<rect x="440.588" y="68.8889" width="12.0833" height="6.80093" rx="3.40046" transform="rotate(90 440.588 68.8889)" stroke="white" stroke-opacity="0.1" stroke-width="1.5"/>
<rect x="5.69727" y="68.8889" width="12.0833" height="6.80093" rx="3.40046" transform="rotate(90 5.69727 68.8889)" stroke="white" stroke-opacity="0.1" stroke-width="1.5"/>
<rect x="295.697" y="68.8889" width="12.0833" height="6.80093" rx="3.40046" transform="rotate(90 295.697 68.8889)" stroke="white" stroke-opacity="0.1" stroke-width="1.5"/>
<rect x="150.588" y="242.454" width="12.0833" height="6.80093" rx="3.40046" transform="rotate(90 150.588 242.454)" stroke="white" stroke-opacity="0.1" stroke-width="1.5"/>
<rect x="440.588" y="242.454" width="12.0833" height="6.80093" rx="3.40046" transform="rotate(90 440.588 242.454)" stroke="white" stroke-opacity="0.1" stroke-width="1.5"/>
<rect x="5.69727" y="242.454" width="12.0833" height="6.80093" rx="3.40046" transform="rotate(90 5.69727 242.454)" stroke="white" stroke-opacity="0.1" stroke-width="1.5"/>
<rect x="295.697" y="242.454" width="12.0833" height="6.80093" rx="3.40046" transform="rotate(90 295.697 242.454)" stroke="white" stroke-opacity="0.1" stroke-width="1.5"/>
<rect x="223.031" y="34.1759" width="12.0833" height="6.80093" rx="3.40046" transform="rotate(90 223.031 34.1759)" stroke="white" stroke-opacity="0.1" stroke-width="1.5"/>
<rect x="78.1426" y="34.1759" width="12.0833" height="6.80093" rx="3.40046" transform="rotate(90 78.1426 34.1759)" stroke="white" stroke-opacity="0.1" stroke-width="1.5"/>
<rect x="368.143" y="34.1759" width="12.0833" height="6.80093" rx="3.40046" transform="rotate(90 368.143 34.1759)" stroke="white" stroke-opacity="0.1" stroke-width="1.5"/>
<rect x="223.031" y="207.741" width="12.0833" height="6.80093" rx="3.40046" transform="rotate(90 223.031 207.741)" stroke="white" stroke-opacity="0.1" stroke-width="1.5"/>
<rect x="78.1426" y="207.741" width="12.0833" height="6.80093" rx="3.40046" transform="rotate(90 78.1426 207.741)" stroke="white" stroke-opacity="0.1" stroke-width="1.5"/>
<rect x="368.143" y="207.741" width="12.0833" height="6.80093" rx="3.40046" transform="rotate(90 368.143 207.741)" stroke="white" stroke-opacity="0.1" stroke-width="1.5"/>
<rect x="150.588" y="34.1759" width="12.0833" height="6.80093" rx="3.40046" transform="rotate(90 150.588 34.1759)" stroke="white" stroke-opacity="0.1" stroke-width="1.5"/>
<rect x="440.588" y="34.1759" width="12.0833" height="6.80093" rx="3.40046" transform="rotate(90 440.588 34.1759)" stroke="white" stroke-opacity="0.1" stroke-width="1.5"/>
<rect x="5.69727" y="34.1759" width="12.0833" height="6.80093" rx="3.40046" transform="rotate(90 5.69727 34.1759)" stroke="white" stroke-opacity="0.1" stroke-width="1.5"/>
<rect x="295.697" y="34.1759" width="12.0833" height="6.80093" rx="3.40046" transform="rotate(90 295.697 34.1759)" stroke="white" stroke-opacity="0.1" stroke-width="1.5"/>
<rect x="150.588" y="207.741" width="12.0833" height="6.80093" rx="3.40046" transform="rotate(90 150.588 207.741)" stroke="white" stroke-opacity="0.1" stroke-width="1.5"/>
<rect x="440.588" y="207.741" width="12.0833" height="6.80093" rx="3.40046" transform="rotate(90 440.588 207.741)" stroke="white" stroke-opacity="0.1" stroke-width="1.5"/>
<rect x="5.69727" y="207.741" width="12.0833" height="6.80093" rx="3.40046" transform="rotate(90 5.69727 207.741)" stroke="white" stroke-opacity="0.1" stroke-width="1.5"/>
<rect x="295.697" y="207.741" width="12.0833" height="6.80093" rx="3.40046" transform="rotate(90 295.697 207.741)" stroke="white" stroke-opacity="0.1" stroke-width="1.5"/>
<rect x="247.18" y="68.8889" width="12.0833" height="6.80093" rx="3.40046" transform="rotate(90 247.18 68.8889)" stroke="white" stroke-opacity="0.1" stroke-width="1.5"/>
<rect x="102.291" y="68.8889" width="12.0833" height="6.80093" rx="3.40046" transform="rotate(90 102.291 68.8889)" stroke="white" stroke-opacity="0.1" stroke-width="1.5"/>
<rect x="392.291" y="68.8889" width="12.0833" height="6.80093" rx="3.40046" transform="rotate(90 392.291 68.8889)" stroke="white" stroke-opacity="0.1" stroke-width="1.5"/>
<rect x="247.18" y="242.454" width="12.0833" height="6.80093" rx="3.40046" transform="rotate(90 247.18 242.454)" stroke="white" stroke-opacity="0.1" stroke-width="1.5"/>
<rect x="102.291" y="242.454" width="12.0833" height="6.80093" rx="3.40046" transform="rotate(90 102.291 242.454)" stroke="white" stroke-opacity="0.1" stroke-width="1.5"/>
<rect x="392.291" y="242.454" width="12.0833" height="6.80093" rx="3.40046" transform="rotate(90 392.291 242.454)" stroke="white" stroke-opacity="0.1" stroke-width="1.5"/>
<rect x="174.734" y="68.8889" width="12.0833" height="6.80093" rx="3.40046" transform="rotate(90 174.734 68.8889)" stroke="white" stroke-opacity="0.1" stroke-width="1.5"/>
<rect x="29.8457" y="68.8889" width="12.0833" height="6.80093" rx="3.40046" transform="rotate(90 29.8457 68.8889)" stroke="white" stroke-opacity="0.1" stroke-width="1.5"/>
<rect x="319.846" y="68.8889" width="12.0833" height="6.80093" rx="3.40046" transform="rotate(90 319.846 68.8889)" stroke="white" stroke-opacity="0.1" stroke-width="1.5"/>
<rect x="174.734" y="242.454" width="12.0833" height="6.80093" rx="3.40046" transform="rotate(90 174.734 242.454)" stroke="white" stroke-opacity="0.1" stroke-width="1.5"/>
<rect x="29.8457" y="242.454" width="12.0833" height="6.80093" rx="3.40046" transform="rotate(90 29.8457 242.454)" stroke="white" stroke-opacity="0.1" stroke-width="1.5"/>
<rect x="319.846" y="242.454" width="12.0833" height="6.80093" rx="3.40046" transform="rotate(90 319.846 242.454)" stroke="white" stroke-opacity="0.1" stroke-width="1.5"/>
<rect x="198.883" y="68.8889" width="12.0833" height="6.80093" rx="3.40046" transform="rotate(90 198.883 68.8889)" stroke="white" stroke-opacity="0.1" stroke-width="1.5"/>
<rect x="53.9941" y="68.8889" width="12.0833" height="6.80093" rx="3.40046" transform="rotate(90 53.9941 68.8889)" stroke="white" stroke-opacity="0.1" stroke-width="1.5"/>
<rect x="343.994" y="68.8889" width="12.0833" height="6.80093" rx="3.40046" transform="rotate(90 343.994 68.8889)" stroke="white" stroke-opacity="0.1" stroke-width="1.5"/>
<rect x="198.883" y="242.454" width="12.0833" height="6.80093" rx="3.40046" transform="rotate(90 198.883 242.454)" stroke="white" stroke-opacity="0.1" stroke-width="1.5"/>
<rect x="53.9941" y="242.454" width="12.0833" height="6.80093" rx="3.40046" transform="rotate(90 53.9941 242.454)" stroke="white" stroke-opacity="0.1" stroke-width="1.5"/>
<rect x="343.994" y="242.454" width="12.0833" height="6.80093" rx="3.40046" transform="rotate(90 343.994 242.454)" stroke="white" stroke-opacity="0.1" stroke-width="1.5"/>
<rect x="126.439" y="68.8889" width="12.0833" height="6.80093" rx="3.40046" transform="rotate(90 126.439 68.8889)" stroke="white" stroke-opacity="0.1" stroke-width="1.5"/>
<rect x="416.439" y="68.8889" width="12.0833" height="6.80093" rx="3.40046" transform="rotate(90 416.439 68.8889)" stroke="white" stroke-opacity="0.1" stroke-width="1.5"/>
<rect x="271.551" y="68.8889" width="12.0833" height="6.80093" rx="3.40046" transform="rotate(90 271.551 68.8889)" stroke="white" stroke-opacity="0.1" stroke-width="1.5"/>
<rect x="126.439" y="242.454" width="12.0833" height="6.80093" rx="3.40046" transform="rotate(90 126.439 242.454)" stroke="white" stroke-opacity="0.1" stroke-width="1.5"/>
<rect x="416.439" y="242.454" width="12.0833" height="6.80093" rx="3.40046" transform="rotate(90 416.439 242.454)" stroke="white" stroke-opacity="0.1" stroke-width="1.5"/>
<rect x="271.551" y="242.454" width="12.0833" height="6.80093" rx="3.40046" transform="rotate(90 271.551 242.454)" stroke="white" stroke-opacity="0.1" stroke-width="1.5"/>
<rect x="198.883" y="34.1759" width="12.0833" height="6.80093" rx="3.40046" transform="rotate(90 198.883 34.1759)" stroke="white" stroke-opacity="0.1" stroke-width="1.5"/>
<rect x="53.9941" y="34.1759" width="12.0833" height="6.80093" rx="3.40046" transform="rotate(90 53.9941 34.1759)" stroke="white" stroke-opacity="0.1" stroke-width="1.5"/>
<rect x="343.994" y="34.1759" width="12.0833" height="6.80093" rx="3.40046" transform="rotate(90 343.994 34.1759)" stroke="white" stroke-opacity="0.1" stroke-width="1.5"/>
<rect x="198.883" y="207.741" width="12.0833" height="6.80093" rx="3.40046" transform="rotate(90 198.883 207.741)" stroke="white" stroke-opacity="0.1" stroke-width="1.5"/>
<rect x="53.9941" y="207.741" width="12.0833" height="6.80093" rx="3.40046" transform="rotate(90 53.9941 207.741)" stroke="white" stroke-opacity="0.1" stroke-width="1.5"/>
<rect x="343.994" y="207.741" width="12.0833" height="6.80093" rx="3.40046" transform="rotate(90 343.994 207.741)" stroke="white" stroke-opacity="0.1" stroke-width="1.5"/>
<rect x="126.439" y="34.1759" width="12.0833" height="6.80093" rx="3.40046" transform="rotate(90 126.439 34.1759)" stroke="white" stroke-opacity="0.1" stroke-width="1.5"/>
<rect x="416.439" y="34.1759" width="12.0833" height="6.80093" rx="3.40046" transform="rotate(90 416.439 34.1759)" stroke="white" stroke-opacity="0.1" stroke-width="1.5"/>
<rect x="271.551" y="34.1759" width="12.0833" height="6.80093" rx="3.40046" transform="rotate(90 271.551 34.1759)" stroke="white" stroke-opacity="0.1" stroke-width="1.5"/>
<rect x="126.439" y="207.741" width="12.0833" height="6.80093" rx="3.40046" transform="rotate(90 126.439 207.741)" stroke="white" stroke-opacity="0.1" stroke-width="1.5"/>
<rect x="416.439" y="207.741" width="12.0833" height="6.80093" rx="3.40046" transform="rotate(90 416.439 207.741)" stroke="white" stroke-opacity="0.1" stroke-width="1.5"/>
<rect x="271.551" y="207.741" width="12.0833" height="6.80093" rx="3.40046" transform="rotate(90 271.551 207.741)" stroke="white" stroke-opacity="0.1" stroke-width="1.5"/>
<rect x="223.031" y="103.602" width="12.0833" height="6.80093" rx="3.40046" transform="rotate(90 223.031 103.602)" stroke="white" stroke-opacity="0.1" stroke-width="1.5"/>
<rect x="78.1426" y="103.602" width="12.0833" height="6.80093" rx="3.40046" transform="rotate(90 78.1426 103.602)" stroke="white" stroke-opacity="0.1" stroke-width="1.5"/>
<rect x="368.143" y="103.602" width="12.0833" height="6.80093" rx="3.40046" transform="rotate(90 368.143 103.602)" stroke="white" stroke-opacity="0.1" stroke-width="1.5"/>
<rect x="223.031" y="277.167" width="12.0833" height="6.80093" rx="3.40046" transform="rotate(90 223.031 277.167)" stroke="white" stroke-opacity="0.1" stroke-width="1.5"/>
<rect x="78.1426" y="277.167" width="12.0833" height="6.80093" rx="3.40046" transform="rotate(90 78.1426 277.167)" stroke="white" stroke-opacity="0.1" stroke-width="1.5"/>
<rect x="368.143" y="277.167" width="12.0833" height="6.80093" rx="3.40046" transform="rotate(90 368.143 277.167)" stroke="white" stroke-opacity="0.1" stroke-width="1.5"/>
<rect x="150.588" y="103.602" width="12.0833" height="6.80093" rx="3.40046" transform="rotate(90 150.588 103.602)" stroke="white" stroke-opacity="0.1" stroke-width="1.5"/>
<rect x="440.588" y="103.602" width="12.0833" height="6.80093" rx="3.40046" transform="rotate(90 440.588 103.602)" stroke="white" stroke-opacity="0.1" stroke-width="1.5"/>
<rect x="5.69727" y="103.602" width="12.0833" height="6.80093" rx="3.40046" transform="rotate(90 5.69727 103.602)" stroke="white" stroke-opacity="0.1" stroke-width="1.5"/>
<rect x="295.697" y="103.602" width="12.0833" height="6.80093" rx="3.40046" transform="rotate(90 295.697 103.602)" stroke="white" stroke-opacity="0.1" stroke-width="1.5"/>
<rect x="150.588" y="277.167" width="12.0833" height="6.80093" rx="3.40046" transform="rotate(90 150.588 277.167)" stroke="white" stroke-opacity="0.1" stroke-width="1.5"/>
<rect x="440.588" y="277.167" width="12.0833" height="6.80093" rx="3.40046" transform="rotate(90 440.588 277.167)" stroke="white" stroke-opacity="0.1" stroke-width="1.5"/>
<rect x="5.69727" y="277.167" width="12.0833" height="6.80093" rx="3.40046" transform="rotate(90 5.69727 277.167)" stroke="white" stroke-opacity="0.1" stroke-width="1.5"/>
<rect x="295.697" y="277.167" width="12.0833" height="6.80093" rx="3.40046" transform="rotate(90 295.697 277.167)" stroke="white" stroke-opacity="0.1" stroke-width="1.5"/>
<rect x="198.883" y="103.602" width="12.0833" height="6.80093" rx="3.40046" transform="rotate(90 198.883 103.602)" stroke="white" stroke-opacity="0.1" stroke-width="1.5"/>
<rect x="53.9941" y="103.602" width="12.0833" height="6.80093" rx="3.40046" transform="rotate(90 53.9941 103.602)" stroke="white" stroke-opacity="0.1" stroke-width="1.5"/>
<rect x="343.994" y="103.602" width="12.0833" height="6.80093" rx="3.40046" transform="rotate(90 343.994 103.602)" stroke="white" stroke-opacity="0.1" stroke-width="1.5"/>
<rect x="198.883" y="277.167" width="12.0833" height="6.80093" rx="3.40046" transform="rotate(90 198.883 277.167)" stroke="white" stroke-opacity="0.1" stroke-width="1.5"/>
<rect x="53.9941" y="277.167" width="12.0833" height="6.80093" rx="3.40046" transform="rotate(90 53.9941 277.167)" stroke="white" stroke-opacity="0.1" stroke-width="1.5"/>
<rect x="343.994" y="277.167" width="12.0833" height="6.80093" rx="3.40046" transform="rotate(90 343.994 277.167)" stroke="white" stroke-opacity="0.1" stroke-width="1.5"/>
<rect x="126.439" y="103.602" width="12.0833" height="6.80093" rx="3.40046" transform="rotate(90 126.439 103.602)" stroke="white" stroke-opacity="0.1" stroke-width="1.5"/>
<rect x="416.439" y="103.602" width="12.0833" height="6.80093" rx="3.40046" transform="rotate(90 416.439 103.602)" stroke="white" stroke-opacity="0.1" stroke-width="1.5"/>
<rect x="271.551" y="103.602" width="12.0833" height="6.80093" rx="3.40046" transform="rotate(90 271.551 103.602)" stroke="white" stroke-opacity="0.1" stroke-width="1.5"/>
<rect x="126.439" y="277.167" width="12.0833" height="6.80093" rx="3.40046" transform="rotate(90 126.439 277.167)" stroke="white" stroke-opacity="0.1" stroke-width="1.5"/>
<rect x="416.439" y="277.167" width="12.0833" height="6.80093" rx="3.40046" transform="rotate(90 416.439 277.167)" stroke="white" stroke-opacity="0.1" stroke-width="1.5"/>
<rect x="271.551" y="277.167" width="12.0833" height="6.80093" rx="3.40046" transform="rotate(90 271.551 277.167)" stroke="white" stroke-opacity="0.1" stroke-width="1.5"/>
<rect x="247.18" y="34.1759" width="12.0833" height="6.80093" rx="3.40046" transform="rotate(90 247.18 34.1759)" stroke="white" stroke-opacity="0.1" stroke-width="1.5"/>
<rect x="102.291" y="34.1759" width="12.0833" height="6.80093" rx="3.40046" transform="rotate(90 102.291 34.1759)" stroke="white" stroke-opacity="0.1" stroke-width="1.5"/>
<rect x="392.291" y="34.1759" width="12.0833" height="6.80093" rx="3.40046" transform="rotate(90 392.291 34.1759)" stroke="white" stroke-opacity="0.1" stroke-width="1.5"/>
<rect x="247.18" y="207.741" width="12.0833" height="6.80093" rx="3.40046" transform="rotate(90 247.18 207.741)" stroke="white" stroke-opacity="0.1" stroke-width="1.5"/>
<rect x="102.291" y="207.741" width="12.0833" height="6.80093" rx="3.40046" transform="rotate(90 102.291 207.741)" stroke="white" stroke-opacity="0.1" stroke-width="1.5"/>
<rect x="392.291" y="207.741" width="12.0833" height="6.80093" rx="3.40046" transform="rotate(90 392.291 207.741)" stroke="white" stroke-opacity="0.1" stroke-width="1.5"/>
<rect x="174.734" y="34.1759" width="12.0833" height="6.80093" rx="3.40046" transform="rotate(90 174.734 34.1759)" stroke="white" stroke-opacity="0.1" stroke-width="1.5"/>
<rect x="29.8457" y="34.1759" width="12.0833" height="6.80093" rx="3.40046" transform="rotate(90 29.8457 34.1759)" stroke="white" stroke-opacity="0.1" stroke-width="1.5"/>
<rect x="319.846" y="34.1759" width="12.0833" height="6.80093" rx="3.40046" transform="rotate(90 319.846 34.1759)" stroke="white" stroke-opacity="0.1" stroke-width="1.5"/>
<rect x="174.734" y="207.741" width="12.0833" height="6.80093" rx="3.40046" transform="rotate(90 174.734 207.741)" stroke="white" stroke-opacity="0.1" stroke-width="1.5"/>
<rect x="29.8457" y="207.741" width="12.0833" height="6.80093" rx="3.40046" transform="rotate(90 29.8457 207.741)" stroke="white" stroke-opacity="0.1" stroke-width="1.5"/>
<rect x="319.846" y="207.741" width="12.0833" height="6.80093" rx="3.40046" transform="rotate(90 319.846 207.741)" stroke="white" stroke-opacity="0.1" stroke-width="1.5"/>
<rect x="247.18" y="103.602" width="12.0833" height="6.80093" rx="3.40046" transform="rotate(90 247.18 103.602)" stroke="white" stroke-opacity="0.1" stroke-width="1.5"/>
<rect x="102.291" y="103.602" width="12.0833" height="6.80093" rx="3.40046" transform="rotate(90 102.291 103.602)" stroke="white" stroke-opacity="0.1" stroke-width="1.5"/>
<rect x="392.291" y="103.602" width="12.0833" height="6.80093" rx="3.40046" transform="rotate(90 392.291 103.602)" stroke="white" stroke-opacity="0.1" stroke-width="1.5"/>
<rect x="247.18" y="277.167" width="12.0833" height="6.80093" rx="3.40046" transform="rotate(90 247.18 277.167)" stroke="white" stroke-opacity="0.1" stroke-width="1.5"/>
<rect x="102.291" y="277.167" width="12.0833" height="6.80093" rx="3.40046" transform="rotate(90 102.291 277.167)" stroke="white" stroke-opacity="0.1" stroke-width="1.5"/>
<rect x="392.291" y="277.167" width="12.0833" height="6.80093" rx="3.40046" transform="rotate(90 392.291 277.167)" stroke="white" stroke-opacity="0.1" stroke-width="1.5"/>
<rect x="174.734" y="103.602" width="12.0833" height="6.80093" rx="3.40046" transform="rotate(90 174.734 103.602)" stroke="white" stroke-opacity="0.1" stroke-width="1.5"/>
<rect x="29.8457" y="103.602" width="12.0833" height="6.80093" rx="3.40046" transform="rotate(90 29.8457 103.602)" stroke="white" stroke-opacity="0.1" stroke-width="1.5"/>
<rect x="319.846" y="103.602" width="12.0833" height="6.80093" rx="3.40046" transform="rotate(90 319.846 103.602)" stroke="white" stroke-opacity="0.1" stroke-width="1.5"/>
<rect x="174.734" y="277.167" width="12.0833" height="6.80093" rx="3.40046" transform="rotate(90 174.734 277.167)" stroke="white" stroke-opacity="0.1" stroke-width="1.5"/>
<rect x="29.8457" y="277.167" width="12.0833" height="6.80093" rx="3.40046" transform="rotate(90 29.8457 277.167)" stroke="white" stroke-opacity="0.1" stroke-width="1.5"/>
<rect x="319.846" y="277.167" width="12.0833" height="6.80093" rx="3.40046" transform="rotate(90 319.846 277.167)" stroke="white" stroke-opacity="0.1" stroke-width="1.5"/>
</g>
</svg>
